<?xml version="1.0" encoding="UTF-8" standalone="no"?>
<!-- Created with Inkscape (http://www.inkscape.org/) -->

<svg
   xmlns:dc="http://purl.org/dc/elements/1.1/"
   xmlns:cc="http://creativecommons.org/ns#"
   xmlns:rdf="http://www.w3.org/1999/02/22-rdf-syntax-ns#"
   xmlns:svg="http://www.w3.org/2000/svg"
   xmlns="http://www.w3.org/2000/svg"
   xmlns:sodipodi="http://sodipodi.sourceforge.net/DTD/sodipodi-0.dtd"
   xmlns:inkscape="http://www.inkscape.org/namespaces/inkscape"
   width="210mm"
   height="297mm"
   viewBox="0 0 210 297"
   version="1.1"
   id="svg8"
   inkscape:version="0.92.4 (5da689c313, 2019-01-14)"
   sodipodi:docname="KASSI.svg">
  <defs
     id="defs2" />
  <sodipodi:namedview
     id="base"
     pagecolor="#ffffff"
     bordercolor="#666666"
     borderopacity="1.0"
     inkscape:pageopacity="0.0"
     inkscape:pageshadow="2"
     inkscape:zoom="0.76095916"
     inkscape:cx="198.44345"
     inkscape:cy="661.09342"
     inkscape:document-units="mm"
     inkscape:current-layer="layer1"
     showgrid="false"
     inkscape:window-width="1680"
     inkscape:window-height="987"
     inkscape:window-x="-8"
     inkscape:window-y="-8"
     inkscape:window-maximized="1" />
  <metadata
     id="metadata5">
    <rdf:RDF>
      <cc:Work
         rdf:about="">
        <dc:format>image/svg+xml</dc:format>
        <dc:type
           rdf:resource="http://purl.org/dc/dcmitype/StillImage" />
        <dc:title />
      </cc:Work>
    </rdf:RDF>
  </metadata>
  <g
     inkscape:label="Layer 1"
     inkscape:groupmode="layer"
     id="layer1">
    <path
       style="fill:#0000ff;fill-opacity:1;stroke:#ff0000;stroke-width:0.02;stroke-miterlimit:4;stroke-dasharray:none;stroke-opacity:1"
       d="m 109.08625,162.55749 -0.031,-2.41274 -7.62236,-0.0314 -7.622285,-0.0314 v -8.12305 -8.12304 h -2.283839 -2.28384 v -8.1239 -8.12391 h 2.28384 2.283839 v -8.18499 -8.18498 h -2.283841 -2.28384 v -8.1239 -8.123881 h 34.999936 35.00004 v 8.121291 8.12133 l -2.25531,0.0332 -2.2553,0.0332 -0.0293,8.15444 -0.0293,8.15445 h 2.28466 2.28467 v 8.1239 8.12391 h -2.28385 -2.28385 v 8.1239 8.12391 h -7.59382 -7.5938 v 2.44327 2.44329 h -15.18521 -15.1852 z m 16.20205,-7.43836 c 1.74851,-1.64124 7.8513,-8.24053 9.19168,-9.93947 1.28494,-1.62869 3.40894,-4.58101 3.40894,-4.73838 0,-0.0521 -0.30053,-0.41289 -0.66784,-0.80175 l -0.66784,-0.707 -0.78812,1.1335 c -2.4805,3.56755 -6.4392,8.0955 -10.36593,11.85654 l -1.35593,1.29873 -1.32759,-1.23006 c -0.73016,-0.67651 -1.98649,-1.86743 -2.79182,-2.64646 l -1.46423,-1.41643 1.06366,-0.0892 c 1.31177,-0.10988 2.16856,-0.29051 2.82289,-0.59513 0.61795,-0.28768 2.00699,-1.33847 5.5323,-4.1851 3.04853,-2.46163 3.84593,-3.18423 3.83994,-3.47967 -0.002,-0.11136 -0.12539,-0.36113 -0.27362,-0.55506 l -0.26952,-0.35259 -1.7533,1.46057 c -4.11859,3.43096 -6.51983,5.26901 -7.57079,5.79515 -0.69517,0.34802 -0.91166,0.39386 -2.10913,0.44662 -2.09253,0.0922 -2.91427,-0.24843 -4.1282,-1.71123 -0.81786,-0.98552 -2.39404,-3.06632 -3.24585,-4.28499 l -0.6666,-0.95369 -0.66645,0.70554 c -0.36655,0.38804 -0.66645,0.75113 -0.66645,0.80687 0,0.13136 1.48995,2.235 2.59998,3.67092 1.46969,1.90114 3.70336,4.48063 5.42258,6.26214 2.35308,2.43835 5.41912,5.30483 5.67412,5.30483 0.0544,0 0.60479,-0.47488 1.22312,-1.05529 z m -4.11429,-16.05677 c 1.23926,-0.43408 2.43553,-1.30411 6.23622,-4.53554 4.84893,-4.12267 6.28166,-4.8847 8.49266,-4.51696 1.55279,0.25825 2.4825,1.01192 3.1606,2.56214 l 0.3497,0.79945 -0.20122,0.6061 -0.20123,0.60611 0.66309,0.71686 c 0.3647,0.39426 0.69772,0.71685 0.74005,0.71685 0.15426,0 1.15851,-2.65482 1.53846,-4.06706 0.60248,-2.2393 0.73773,-3.77583 1.14473,-13.00536 l 0.0767,-1.74084 h -0.97845 -0.97846 l -0.0618,0.64137 c -0.034,0.35274 -0.1175,1.98821 -0.1856,3.63438 -0.23476,5.67462 -0.58889,9.58615 -0.89883,9.92826 -0.0469,0.0517 -0.28155,-0.21089 -0.5215,-0.58362 -0.94901,-1.47409 -2.48865,-2.2529 -4.46258,-2.25733 -2.07454,-0.005 -3.7214,0.90766 -7.58924,4.20428 -3.9474,3.36442 -5.73364,4.68709 -6.77779,5.01881 -0.79428,0.25234 -1.85019,0.2287 -2.43316,-0.0545 -0.47664,-0.23152 -1.40897,-1.12477 -1.40897,-1.3499 0,-0.0661 0.98919,-0.90783 2.19821,-1.87058 1.20901,-0.96275 3.63703,-2.95096 5.39559,-4.41824 8.22787,-6.86501 8.87729,-7.55796 9.19909,-9.81547 0.23451,-1.6451 -0.0931,-3.27565 -1.10902,-5.52076 -0.46004,-1.01658 -0.6686,-1.31287 -1.68119,-2.38823 -0.63581,-0.67523 -1.66035,-1.65703 -2.27676,-2.18178 l -1.12074,-0.95411 -0.58609,0.23824 c -0.32234,0.13104 -0.59899,0.28823 -0.61477,0.34932 -0.0157,0.0611 0.66401,0.6883 1.51065,1.3938 1.56036,1.30025 2.71787,2.44885 3.13937,3.11518 0.96746,1.52946 1.52293,3.33248 1.52423,4.94764 7.9e-4,1.01217 -0.0396,1.25423 -0.31581,1.89318 -0.1742,0.40295 -0.42938,0.8633 -0.56706,1.023 -0.96804,1.12285 -8.13325,7.18489 -14.06764,11.90173 -1.00489,0.79872 -1.88954,1.57766 -1.96587,1.73097 -0.1178,0.23656 -0.0955,0.37182 0.14781,0.89403 0.5485,1.17753 1.49558,2.08702 2.65671,2.55127 0.5433,0.21723 1.89171,0.11587 2.82982,-0.21272 z m -11.12887,-4.76584 c 2.88922,-3.21814 4.34922,-4.49299 10.20102,-8.90726 4.98597,-3.76114 6.1603,-4.80922 6.52114,-5.82003 0.38893,-1.08947 -0.0129,-2.64032 -0.93078,-3.59203 -0.20875,-0.21644 -0.44717,-0.36568 -0.52982,-0.33164 -0.0826,0.0341 -1.04952,0.77501 -2.14863,1.64659 -1.09909,0.87158 -2.10541,1.64515 -2.23624,1.71903 -0.24617,0.13901 -0.27168,0.12875 -3.73032,-1.49971 l -0.99919,-0.47046 1.1e-4,-1.72037 1.2e-4,-1.72037 3.51125,-2.035 c 3.48697,-2.02093 5.21821,-2.97586 5.94645,-3.27997 l 0.3797,-0.15858 -0.32261,-0.28012 c -0.17744,-0.15405 -0.48263,-0.37404 -0.6782,-0.48885 l -0.35557,-0.20873 -2.95601,1.6872 c -4.88284,2.78696 -6.43316,3.73027 -6.56554,3.99492 -0.071,0.14201 -0.15293,1.22979 -0.18793,2.49638 -0.0706,2.55424 -0.0902,2.4871 0.87215,2.96935 l 0.55744,0.27933 -0.91945,0.79414 -0.91947,0.79415 -1.18572,0.0647 -1.18571,0.0647 0.0551,0.5624 c 0.0303,0.30932 0.0588,0.60363 0.0632,0.65403 0.004,0.0504 0.42406,0.0917 0.93251,0.0917 h 0.92447 l -0.0395,1.19109 -0.0395,1.19111 h 0.57095 0.57097 l 0.0822,-1.0384 c 0.12359,-1.56039 0.23582,-1.86258 0.91956,-2.47599 0.87683,-0.78653 1.28743,-1.06676 1.56314,-1.06676 0.13514,0 0.76954,0.24341 1.40978,0.54092 0.64023,0.29751 1.30854,0.57919 1.48512,0.62595 0.37516,0.0994 0.67783,-0.10455 2.99053,-2.01467 0.81647,-0.67434 1.5437,-1.22673 1.61607,-1.22753 0.18163,-0.002 0.38245,0.66588 0.38155,1.26895 -0.002,0.97142 -0.0714,1.03614 -6.15531,5.69621 -2.38783,1.829 -5.02422,3.90596 -5.85863,4.61545 -1.78542,1.51812 -3.95946,3.75005 -4.46371,4.58252 -0.44468,0.73416 -0.49108,0.68157 -0.97971,-1.11071 -0.70911,-2.60099 -0.78771,-3.30231 -1.19426,-10.65598 l -0.24651,-4.45898 -0.99919,-0.0353 c -0.85279,-0.0302 -0.99918,-0.007 -0.99918,0.1598 0,0.52635 0.47461,8.85008 0.57453,10.07618 0.17446,2.14069 0.429,3.57537 0.93202,5.25305 0.46145,1.53913 1.42216,3.90925 1.58455,3.90925 0.0482,0 1.02964,-1.04925 2.18098,-2.33166 z m 11.42338,-18.1308 c 0.22704,-0.85911 0.6308,-2.98548 0.57767,-3.04232 -0.096,-0.1027 -3.60824,1.89575 -3.74362,2.1301 -0.0337,0.0582 0.053,0.17127 0.19259,0.25118 0.49324,0.2824 2.55259,1.08372 2.71342,1.05582 0.0898,-0.0155 0.20666,-0.19321 0.25994,-0.39478 z m -15.0166,-5.19197 -0.0689,-1.46596 h 1.06785 c 2.48437,0 6.54329,-1.09053 9.78894,-2.63002 1.91874,-0.91012 4.15049,-2.35878 5.71953,-3.71265 l 0.8861,-0.76458 1.05517,0.91299 c 3.18871,2.75901 7.0556,4.70809 11.28599,5.68862 1.30346,0.30212 3.39352,0.60097 4.52765,0.6474 l 0.82699,0.0339 -0.0738,1.3834 -0.0738,1.38341 0.95539,-0.0358 0.95539,-0.0358 0.0759,-0.39882 c 0.0418,-0.21934 0.0952,-1.31881 0.11857,-2.44327 l 0.0427,-2.04447 -0.97063,-0.0862 c -3.2099,-0.28503 -4.91727,-0.59019 -7.10182,-1.26934 -4.2466,-1.32024 -8.30831,-3.6091 -11.08314,-6.245561 l -0.54385,-0.516727 -0.94148,0.813428 c -2.43077,2.10016 -5.90929,4.09003 -9.36087,5.35481 -2.56679,0.94057 -4.28443,1.33472 -7.46645,1.71336 -0.9349,0.11124 -1.73655,0.2382 -1.78144,0.28212 -0.0763,0.0747 0.10905,4.41544 0.20282,4.74903 0.0301,0.10691 0.34027,0.1527 1.03457,0.1527 h 0.99166 z"
       id="path4781"
       inkscape:connector-curvature="0" />
    <path
       style="fill:#0000fe;fill-opacity:1;stroke:#ff0000;stroke-width:0.02;stroke-miterlimit:4;stroke-dasharray:none;stroke-opacity:1"
       d="m 35.801564,163.14518 -0.03093,-2.41272 -7.616127,-0.0315 -7.616134,-0.0315 v -8.1841 -8.18409 H 18.256387 15.9744 v -8.12388 -8.12389 h 2.281987 2.281988 v -8.12387 -8.12388 H 18.256387 15.9744 v -8.12388 -8.123886 l 34.99998,-2e-5 34.999981,-1e-5 -0.03012,8.121326 -0.03012,8.12132 -2.251862,0.0331 -2.251863,0.0332 v 8.12388 8.12388 l 2.253454,0.0332 2.253464,0.0332 v 8.11872 8.11871 l -2.253464,0.0332 -2.253454,0.0332 -0.02932,8.09334 -0.02932,8.09334 h -7.586793 -7.586794 v 2.44327 2.44328 H 51.005305 35.832509 Z m 15.905322,-9.86201 c 1.251168,-1.2602 2.582792,-2.30301 4.137387,-3.24004 0.72458,-0.43673 1.317993,-0.82292 1.318703,-0.8582 6.81e-4,-0.0353 -0.379419,-0.46903 -0.844737,-0.9639 l -0.846009,-0.89977 -1.293352,0.91631 c -1.296685,0.91868 -1.690456,1.23882 -2.869885,2.33324 l -0.634487,0.58875 -1.091788,-1.02791 c -0.963895,-0.9075 -2.279255,-1.9827 -3.148772,-2.57386 -0.288435,-0.1961 -0.295671,-0.19144 -1.177308,0.75808 l -0.887092,0.95539 0.949112,0.57321 c 1.272115,0.76828 2.749928,1.91337 4.194133,3.24986 0.655173,0.6063 1.212797,1.10237 1.239168,1.10237 0.02632,0 0.456081,-0.41109 0.954927,-0.91353 z m -8.423144,-6.51969 1.004698,-1.08071 -0.971151,-1.30217 c -2.091321,-2.80418 -2.98703,-4.40993 -3.655814,-6.55383 -0.22008,-0.70549 -0.457643,-1.69501 -0.52792,-2.19894 -0.22117,-1.58602 -0.154916,-1.46596 -0.809068,-1.46596 h -0.579522 l 0.07816,0.76352 c 0.132117,1.2898 0.476007,2.80335 0.910901,4.00901 0.436965,1.21142 1.696761,3.51946 2.67944,4.90893 0.320751,0.45353 0.533775,0.82461 0.473395,0.82461 -0.288244,0 -2.60612,-2.01468 -3.777243,-3.28316 -1.734732,-1.87893 -2.710286,-3.4447 -3.493613,-5.60725 -0.09568,-0.26403 -0.142566,-0.23269 -0.941596,0.62855 l -0.840945,0.90644 0.531713,1.14282 c 1.406975,3.02399 3.915456,5.84728 7.534321,8.47986 0.687239,0.49995 1.278781,0.90899 1.31452,0.90899 0.03573,0 0.5171,-0.48632 1.06968,-1.08071 z m 17.809412,-0.0722 c 2.065431,-1.48378 3.704165,-2.96585 4.991532,-4.51432 1.053527,-1.26722 2.267065,-3.10587 2.731343,-4.13833 l 0.261833,-0.58225 -0.790744,-0.85316 c -0.434914,-0.46925 -0.82392,-0.85318 -0.864463,-0.85318 -0.04053,0 -0.212723,0.34359 -0.382611,0.76353 -0.169889,0.41993 -0.434534,0.94023 -0.588109,1.15619 -0.567192,0.79765 -3.091626,1.98543 -5.459793,2.56893 -1.079338,0.26594 -1.523209,0.30968 -3.086231,0.30411 -1.80659,-0.006 -3.533345,-0.21324 -4.8657,-0.58275 -0.354208,-0.0983 -0.675109,-0.17861 -0.71312,-0.17861 -0.03803,0 -0.06916,0.30024 -0.06916,0.66719 v 0.66719 l 0.427878,0.12246 c 3.660679,1.04757 7.285478,0.9249 10.690279,-0.36178 0.547075,-0.20674 1.049184,-0.35645 1.115778,-0.33268 0.154055,0.055 -1.828798,1.95297 -3.103796,2.97095 -0.534615,0.42685 -1.59744,1.17704 -2.361832,1.66709 l -1.389811,0.89101 0.816455,0.88569 c 0.449045,0.48713 0.865694,0.88568 0.925873,0.88568 0.06015,0 0.831637,-0.51883 1.714345,-1.15296 z m -9.542595,-6.4943 -0.03423,-0.68394 -0.912792,-0.39594 c -4.990161,-2.16455 -7.553457,-5.38512 -8.805456,-11.06337 -0.247841,-1.12405 -0.290576,-1.66046 -0.345501,-4.3368 l -0.06265,-3.05409 0.743175,-1.77138 c 0.408752,-0.97425 1.211035,-2.81036 1.782861,-4.08024 0.571815,-1.26988 1.039676,-2.35561 1.039676,-2.41272 0,-0.0571 -0.283761,-0.10387 -0.630584,-0.10387 h -0.630583 l -0.691612,1.55759 c -1.839307,4.14235 -3.044368,7.20399 -3.978918,10.10904 -0.96997,3.01512 -1.64658,4.26194 -2.686106,4.9498 -0.373154,0.24692 -0.396042,0.30035 -0.396042,0.92401 0,0.36407 0.02732,0.66194 0.06075,0.66194 0.173341,0 0.943958,-0.41253 1.273807,-0.68189 l 0.376966,-0.30785 v 1.02617 c 0,0.5644 0.03323,1.44678 0.07376,1.96083 l 0.07376,0.93467 h 0.54023 0.54023 l 0.06005,-2.35165 c 0.06375,-2.4952 0.19686,-3.36757 0.834399,-5.46682 l 0.315356,-1.0384 0.201684,1.55429 c 0.420502,3.24075 1.199136,5.80477 2.385551,7.85554 1.130911,1.95483 3.250275,4.09229 5.243858,5.28865 0.586026,0.35169 3.369191,1.60548 3.571296,1.60884 0.05024,8.6e-4 0.07586,-0.30625 0.05705,-0.68241 z m 18.853302,-7.39476 c 0.684877,-3.66461 0.939614,-8.1692 0.886851,-15.68213 l -0.03523,-5.0087 -1.13067,-0.0352 -1.13067,-0.0352 0.07136,2.63968 0.07136,2.63967 -0.652201,-0.6058 c -0.358712,-0.33319 -1.2655,-1.19324 -2.01509,-1.91119 -1.474229,-1.41205 -1.891299,-1.708 -2.239982,-1.58951 -0.513098,0.17436 -0.57712,0.50551 -0.450957,2.33241 0.06445,0.93281 0.14765,2.23201 0.18496,2.88712 l 0.06786,1.19109 h 0.575419 0.575428 l -0.05495,-2.13787 c -0.03023,-1.17582 -0.03453,-2.13786 -0.01001,-2.13786 0.02492,0 0.774911,0.67343 1.666696,1.49651 0.891776,0.82308 1.786904,1.64345 1.989169,1.82308 l 0.367739,0.32656 -0.113202,3.827 c -0.107768,3.6433 -0.412526,7.51849 -0.728483,9.26326 l -0.143797,0.79407 0.861031,0.94515 c 0.485855,0.5333 0.904136,0.89899 0.959941,0.83924 0.05444,-0.0582 0.246541,-0.89586 0.426987,-1.86137 z m -36.702947,-1.31409 c -0.08907,-0.6307 -0.145248,-1.16468 -0.124771,-1.18661 0.02052,-0.0219 0.286903,0.0406 0.592031,0.13889 0.305129,0.0984 0.67498,0.17876 0.821899,0.17876 0.247702,0 0.267108,-0.0488 0.267108,-0.67189 0,-0.63875 -0.01431,-0.6719 -0.290917,-0.6719 -0.743345,0 -1.527673,-0.81108 -1.682289,-1.73969 -0.05885,-0.35338 -0.115794,-3.96841 -0.126573,-8.0334 l -0.01962,-7.3909 -1.045191,-0.0351 -1.0452,-0.0351 -0.05695,0.40153 c -0.236833,1.66987 -0.128955,12.08484 0.161451,15.58697 0.201064,2.42464 0.639771,5.65574 0.864894,6.37008 0.03813,0.12108 0.338155,-0.12943 0.950924,-0.79406 l 0.895178,-0.97094 z m 20.382666,1.03866 v -0.65782 l -0.652,-0.0873 c -2.196598,-0.29385 -3.929708,-1.57507 -4.769641,-3.52604 -0.513979,-1.19383 -0.665972,-2.13328 -0.600789,-3.71332 0.06956,-1.6856 0.445162,-2.90856 1.706148,-5.55491 1.018679,-2.13783 1.243902,-2.41299 2.44497,-2.98715 l 0.724179,-0.34618 0.003,-0.59416 0.003,-0.59414 -0.513448,0.0824 c -0.28239,0.0454 -0.513448,0.0481 -0.513448,0.006 0,-0.042 0.212883,-0.6255 0.473075,-1.29676 l 0.473075,-1.22046 0.610867,0.0817 0.610877,0.0817 v -0.68597 c -10e-6,-0.64065 -0.01791,-0.68598 -0.27099,-0.68598 -0.792755,0 -0.928716,-0.10712 -1.526572,-1.20266 -0.317349,-0.58156 -0.709548,-1.18997 -0.87154,-1.35205 -0.345821,-0.34599 0.02342,-0.42821 -3.931259,0.8755 l -2.663927,0.87819 -0.33118,0.70243 c -0.182148,0.38635 -0.331179,0.75898 -0.331179,0.82808 0,0.0691 0.252435,0.12565 0.560976,0.12565 0.458403,0 0.599238,-0.0537 0.770177,-0.29378 0.162652,-0.22842 0.704123,-0.45882 2.434121,-1.03569 3.186182,-1.06245 2.821425,-1.07285 3.403659,0.0972 0.26979,0.54213 0.458493,1.04119 0.419341,1.10902 -0.03983,0.0689 -0.583675,0.12711 -1.233974,0.13191 -1.701855,0.0126 -1.710452,0.0236 -0.783848,1.00811 0.694836,0.73824 0.797369,0.80776 0.9331,0.63265 0.08387,-0.1082 0.243908,-0.2491 0.355649,-0.31313 0.278937,-0.15983 0.01331,0.46834 -1.96599,4.6498 -1.939188,4.09669 -2.182245,4.91341 -2.19955,7.3909 -0.009,1.34044 0.03032,1.73102 0.254327,2.50435 0.703053,2.42707 2.177983,4.14763 4.367014,5.09432 0.590751,0.25547 1.411298,0.4287 2.411963,0.50916 0.167306,0.0134 0.199672,-0.0906 0.199672,-0.64177 z m 4.019781,0.009 c 1.622591,-0.62438 2.515838,-1.20784 3.573929,-2.33447 1.480184,-1.57609 2.218395,-2.9005 2.967574,-5.3241 0.390578,-1.26352 0.439058,-1.5616 0.481772,-2.96246 l 0.04754,-1.55759 h -0.56564 -0.56565 l -0.07956,1.25218 c -0.103174,1.6242 -0.337245,2.71058 -0.869988,4.03776 -1.077217,2.68357 -2.493599,4.31565 -4.658311,5.36766 -0.792505,0.38514 -2.50708,0.82143 -3.238955,0.82417 l -0.427879,0.002 v 0.64336 0.64334 l 1.112476,-0.0821 c 0.846759,-0.0625 1.377641,-0.18416 2.222718,-0.50934 z m 0.364887,-17.13497 c 0.239966,-0.25692 0.225874,-0.57518 -0.05124,-1.1567 -0.230418,-0.48359 -0.230798,-0.48379 -0.925003,-0.48379 -0.545944,0 -0.681465,0.0364 -0.633636,0.16978 0.08597,0.23991 -0.392799,0.31888 -1.933333,0.31888 H 53.62716 v 0.6719 0.6719 h 2.330887 c 1.96685,0 2.358889,-0.0299 2.510182,-0.19197 z m -0.733487,-2.44911 c 0,-0.0416 -0.181547,-0.39562 -0.403438,-0.7867 l -0.403428,-0.71107 -0.880186,-0.19711 c -0.484104,-0.10842 -0.972482,-0.21721 -1.085273,-0.24177 -0.181168,-0.0395 -0.201134,0.0361 -0.17115,0.64721 l 0.03393,0.69185 0.587558,0.0997 c 0.341178,0.0579 0.671556,0.19903 0.787851,0.33662 0.154706,0.18303 0.352107,0.23696 0.867206,0.23696 0.366808,0 0.666912,-0.0341 0.666912,-0.0756 z m -24.358831,-3.98629 0.07486,-0.64137 2.300922,-0.007 c 2.448643,-0.008 3.644586,-0.13559 5.836099,-0.62493 3.006216,-0.67125 6.296464,-2.16217 8.304037,-3.76282 0.549888,-0.43842 1.048724,-0.79712 1.108532,-0.79712 0.05985,0 0.619364,0.35821 1.243462,0.79602 4.117521,2.88851 9.816699,4.49682 15.051558,4.24754 l 1.4738,-0.0702 0.07936,0.75064 0.07937,0.75063 h 1.135324 1.135323 v -1.01996 c 0,-0.56098 -0.03223,-1.42801 -0.07156,-1.92675 l -0.07156,-0.9068 -3.037612,-0.007 c -2.520851,-0.006 -3.309363,-0.0519 -4.635001,-0.27096 -4.587043,-0.75804 -8.251935,-2.29426 -11.497857,-4.81956 l -0.772528,-0.601 -1.224217,0.84646 c -2.02872,1.40272 -3.669696,2.27649 -5.934679,3.16006 -3.303618,1.28874 -6.51369,1.87925 -10.233147,1.88245 -1.194212,0.001 -2.241584,0.0496 -2.327484,0.10781 -0.107968,0.0732 -0.170499,0.45923 -0.202555,1.2503 -0.02552,0.62941 -0.06325,1.4055 -0.08377,1.72465 l -0.03743,0.58028 h 1.116038 1.116028 z"
       id="path4779"
       inkscape:connector-curvature="0" />
    <path
       style="fill:#0000ff;fill-opacity:1;stroke:#ff0000;stroke-width:0.02;stroke-miterlimit:4;stroke-dasharray:none;stroke-opacity:1"
       d="m 13.607886,81.576363 10e-6,-9.898121 h 2.283846 2.283841 V 56.441394 41.204547 l -2.283961,0.03311 -2.283961,0.03311 1.17e-4,-9.898121 1.18e-4,-9.898121 h 9.877615 9.87761 v 2.281988 2.281988 h 15.24464 15.24464 v -2.281988 -2.281988 h 9.87761 9.87762 v 9.867184 9.867184 l -2.255295,0.03094 -2.255294,0.03093 -0.02895,15.203741 -0.02895,15.203742 h 2.284251 2.284262 v 9.868347 9.868345 l -9.87763,0.02977 -9.87762,0.02977 1e-5,-2.310928 10e-6,-2.310929 -15.216093,0.02894 -15.216084,0.02894 -0.03095,2.252213 -0.03095,2.252215 -9.875216,0.02977 -9.875211,0.02977 z"
       id="path4783"
       inkscape:connector-curvature="0" />
    <path
       style="fill:#0000ff;fill-opacity:1;stroke:#ff0000;stroke-width:0.02;stroke-miterlimit:4;stroke-dasharray:none;stroke-opacity:1"
       d="m 108.23487,235.02262 -0.0309,-2.41273 h -9.555822 -9.555734 v -8.15444 l 10e-6,-8.15444 h 2.281969 2.281968 v -8.12879 -8.12881 l -2.282088,0.0355 -2.282089,0.0355 v -8.12389 -8.1239 l 2.282089,0.0355 2.282088,0.0355 v -8.25097 -8.25097 l 30.435909,-1e-5 30.43592,-10e-6 v 8.15446 8.15444 l 2.25185,0.0332 2.25186,0.0332 0.0301,8.12133 0.0301,8.12134 -2.31051,-2e-5 -2.31051,-1e-5 v 8.12389 8.1239 l 2.31051,-2e-5 2.31051,-2e-5 -0.0301,8.12325 -0.0301,8.12326 -10.18174,0.0312 -10.18174,0.0312 -0.0309,2.41273 -0.0309,2.41274 h -15.17036 -15.17035 z m 10.55942,-20.5892 c 0.35816,-0.17557 0.68019,-0.40004 0.71559,-0.49882 0.0641,-0.1789 -0.7595,-2.1632 -2.01209,-4.84764 -0.59464,-1.27441 -1.58386,-2.72415 -1.74463,-2.55686 -0.1263,0.13143 0.39039,2.84647 0.70877,3.72436 0.18263,0.50362 0.30351,0.91567 0.2686,0.91567 -0.0349,0 -0.9602,-0.49688 -2.0562,-1.10417 -1.09599,-0.60729 -2.02342,-1.07131 -2.06093,-1.03115 -0.0375,0.0402 0.0792,0.37446 0.25935,0.74288 0.64699,1.32306 1.79719,2.08117 4.54639,2.99653 0.86379,0.28761 1.5528,0.58034 1.5311,0.65051 -0.0226,0.0731 -0.49786,0.14276 -1.11384,0.16312 -0.89273,0.0296 -1.23158,-0.0169 -2.0042,-0.27487 -0.51139,-0.17071 -0.96081,-0.3104 -0.99869,-0.3104 -0.31076,0 0.69756,1.25146 1.2851,1.59498 0.58843,0.34404 1.78922,0.27037 2.67568,-0.16414 z m 11.68584,-0.0445 c 0.41133,-0.32883 0.99955,-1.12216 0.90616,-1.22215 -0.0417,-0.0447 -0.35426,-0.0145 -0.69448,0.067 -1.03368,0.24768 -2.51609,0.36774 -3.22183,0.26094 -0.50292,-0.0761 -0.70698,-0.0612 -0.82611,0.0604 -0.27805,0.28378 -0.0571,0.49835 0.86054,0.83551 1.10795,0.40711 2.46526,0.40633 2.97572,-0.002 z m -9.91925,-1.28861 c 0.28584,-0.30605 0.10416,-0.65013 -0.99277,-1.88025 -0.62133,-0.69676 -1.25694,-1.54026 -1.41247,-1.87442 -0.15552,-0.33416 -0.30955,-0.5789 -0.34227,-0.54387 -0.17806,0.19064 0.89162,2.74738 1.63047,3.89718 0.27317,0.4251 0.42252,0.54796 0.66612,0.54796 0.17269,0 0.37561,-0.066 0.45092,-0.1466 z m 5.72477,-0.18936 c 0.81325,-0.79677 2.39826,-4.30627 1.94485,-4.30627 -0.064,0 -0.11627,0.0694 -0.11627,0.15434 0,0.29502 -0.84222,1.4906 -1.79726,2.55134 -0.99002,1.09958 -1.06004,1.28192 -0.68499,1.78384 0.16559,0.22158 0.27048,0.19218 0.65367,-0.18325 z m 1.91509,-0.0941 c 2.12961,-0.53499 3.55099,-1.12747 4.46092,-1.85946 0.39541,-0.31808 1.04342,-1.30129 1.04342,-1.58314 0,-0.0991 -0.50187,0.11695 -1.31829,0.56734 -1.3251,0.731 -2.43111,1.22853 -2.73105,1.22853 -0.13796,0 -0.13674,-0.0842 0.008,-0.58028 0.5229,-1.78654 0.96022,-3.50986 0.96022,-3.78387 0,-0.28985 -0.0294,-0.2719 -0.39485,0.24047 -0.21717,0.30452 -0.54542,0.60987 -0.72942,0.67855 -0.24408,0.0912 -0.37309,0.25175 -0.47695,0.59391 -0.24361,0.80255 -1.10248,2.81108 -1.63815,3.83095 -0.28163,0.53619 -0.48907,0.9749 -0.46099,0.9749 0.0281,0 0.60261,-0.13856 1.2767,-0.3079 z m -12.45626,-2.91328 c 0.0859,-0.23954 -0.73787,-5.66918 -0.93801,-6.183 -0.1914,-0.49137 -0.82913,-1.24604 -0.9727,-1.15103 -0.1527,0.10104 -0.1079,0.9352 0.17111,3.1855 l 0.26013,2.098 -1.33064,-1.31978 c -1.96606,-1.95001 -2.32528,-2.13974 -1.81172,-0.95692 0.85327,1.96528 2.44455,3.80422 3.729,4.30938 0.5559,0.21862 0.81898,0.22388 0.89283,0.0178 z m 16.2121,-0.19863 c 0.73615,-0.34508 1.43274,-1.11812 2.29244,-2.54402 1.29402,-2.14625 1.32577,-2.21069 1.12872,-2.29165 -0.28845,-0.11852 -0.6495,0.17033 -2.02926,1.62346 -0.99274,1.04552 -1.31703,1.32557 -1.289,1.11311 0.0206,-0.15613 0.0925,-1.081 0.1598,-2.05526 0.0673,-0.97425 0.14987,-2.00501 0.18351,-2.29056 0.0336,-0.28557 0.0166,-0.51921 -0.0378,-0.51921 -0.13124,0 -0.79322,1.51865 -0.9319,2.13787 -0.0602,0.26876 -0.21953,1.20332 -0.35411,2.07679 -0.13459,0.87347 -0.3622,1.90225 -0.50583,2.28618 -0.14362,0.38394 -0.22966,0.73175 -0.1912,0.77293 0.11162,0.11951 1.05493,-0.066 1.5747,-0.30964 z m -18.34678,-5.69879 c -0.14771,-2.99269 -0.45672,-5.49945 -0.66125,-5.36411 -0.20538,0.13591 -0.58382,1.94018 -0.66755,3.18255 l -0.0906,1.3438 -0.32566,-0.6719 c -0.48004,-0.99037 -1.38582,-2.47245 -1.71091,-2.79945 l -0.28392,-0.28557 -0.069,0.29433 c -0.1413,0.6028 0.16166,1.96983 0.69456,3.13404 0.45155,0.98646 0.68764,1.31881 1.77905,2.50436 1.22715,1.333 1.26062,1.35892 1.34764,1.04414 0.049,-0.17754 0.0435,-1.24952 -0.0124,-2.38219 z m 19.98846,1.91818 c 1.34262,-1.07612 2.26747,-2.73342 2.77386,-4.97061 0.15013,-0.66325 0.25452,-1.22749 0.23196,-1.25387 -0.0885,-0.10341 -0.38816,0.28719 -1.47927,1.92785 l -1.13449,1.70586 -0.0708,-1.79288 c -0.0715,-1.81235 -0.35818,-3.33847 -0.55366,-2.94735 -0.0487,0.0975 -0.14994,0.97428 -0.22498,1.94854 -0.0751,0.97425 -0.23554,2.70586 -0.35665,3.84799 -0.12113,1.14215 -0.22022,2.11986 -0.22022,2.17272 0,0.13369 0.309,-0.057 1.03418,-0.63825 z m -13.32835,-0.95116 c 0.23534,-0.10018 0.42495,-0.24485 0.42135,-0.32154 -0.004,-0.0767 -0.26377,-0.36691 -0.57817,-0.64492 -0.52081,-0.46052 -0.6007,-0.49374 -0.89823,-0.3735 -0.69909,0.28253 -1.23246,-0.36542 -1.3393,-1.62705 l -0.0588,-0.69505 -1.12336,-0.59178 c -0.61784,-0.32549 -1.16336,-0.54896 -1.21225,-0.49661 -0.0489,0.0524 -0.0887,0.5991 -0.0884,1.21502 4.5e-4,0.90831 0.05,1.23521 0.26256,1.73065 0.43295,1.00937 1.32597,1.84029 2.18047,2.02882 0.55706,0.12291 1.9119,-0.002 2.43411,-0.22404 z m 7.41053,-3.62072 c 0.0438,-1.26753 0.10814,-2.33509 0.14294,-2.37235 0.0348,-0.0373 1.01823,-0.0934 2.18541,-0.12469 1.95491,-0.0525 2.14397,-0.0772 2.39961,-0.31526 0.1606,-0.1495 0.3062,-0.45128 0.34563,-0.71642 l 0.0682,-0.45812 h -2.48641 -2.4864 l 0.0743,-3.35951 0.0743,-3.35951 h -1.18103 -1.18104 l -0.072,0.64137 c -0.0395,0.35274 -0.0724,1.11369 -0.073,1.69097 -5.7e-4,0.5773 -0.0346,1.80046 -0.0758,2.71815 l -0.0748,1.66853 h -1.06624 -1.06626 v -4.03141 -4.0314 h -1.25811 -1.2581 l 0.0315,4.03146 0.0315,4.03147 -0.85574,0.002 c -1.34532,0.003 -3.08068,0.4848 -3.08068,0.85488 0,0.0648 0.46263,0.36657 1.02805,0.67061 l 1.02806,0.55281 0.4267,-0.22962 c 0.23469,-0.12629 0.65961,-0.25648 0.94425,-0.2893 l 0.51755,-0.0597 -0.0867,0.95984 c -0.0476,0.52791 -0.1679,1.29555 -0.26722,1.70585 -0.0993,0.41032 -0.16484,0.75604 -0.14563,0.76828 0.0192,0.0122 0.35445,0.31268 0.74498,0.66763 0.39052,0.35495 0.76374,0.60983 0.82938,0.5664 0.3725,-0.24649 0.96394,-2.03495 1.18879,-3.59478 l 0.13347,-0.92588 1.09429,-0.0348 1.09428,-0.0348 -0.0403,0.52345 c -0.0839,1.08964 -0.13365,4.11559 -0.0688,4.18499 0.0372,0.0399 0.5837,0.0569 1.21441,0.0379 l 1.14677,-0.0346 z m -15.64061,-0.50654 c 0.0388,-0.40239 0.2295,-1.29548 0.4237,-1.98464 0.19418,-0.68916 0.4132,-1.71316 0.48668,-2.27556 0.12979,-0.99333 0.0748,-1.90771 -0.11484,-1.90771 -0.15102,0 -0.69546,1.4034 -1.03658,2.67198 -0.24696,0.91844 -0.33116,1.10925 -0.38424,0.87078 -0.0374,-0.16799 -0.17627,-0.82766 -0.30866,-1.46597 -0.54548,-2.63019 -0.82901,-3.31022 -1.21005,-2.90224 -0.34247,0.36667 -0.13492,2.71816 0.38517,4.36394 0.0963,0.3047 0.34148,0.91134 0.54486,1.34807 0.20337,0.43674 0.45903,1.08567 0.56812,1.44207 0.14544,0.47518 0.2486,0.63772 0.38679,0.60944 0.14014,-0.0286 0.20653,-0.22606 0.25905,-0.77016 z m 23.48578,-0.96502 c 0.63538,-1.37328 1.02613,-3.08848 1.11254,-4.88361 0.0587,-1.21774 0.0439,-1.44306 -0.0909,-1.39607 -0.0885,0.0308 -0.2467,0.24822 -0.35164,0.48312 -0.32758,0.73322 -0.98437,2.8529 -1.13062,3.6488 l -0.13981,0.76087 -0.49437,-1.51097 c -0.85073,-2.60008 -0.8554,-2.61133 -0.98359,-2.36608 -0.17627,0.33723 0.001,1.93287 0.3735,3.35947 0.18414,0.7055 0.41366,1.68739 0.51004,2.18198 0.0964,0.49459 0.20549,0.95171 0.2425,1.01581 0.12238,0.21202 0.48156,-0.27575 0.95236,-1.29332 z m -0.30701,-4.19503 c 0.40293,-1.09156 0.57106,-1.96378 0.57106,-2.96248 0,-1.26272 -0.41548,-2.92727 -0.6642,-2.66097 -0.0414,0.0444 -0.15635,0.66122 -0.2554,1.3708 -0.0991,0.7096 -0.2155,1.29017 -0.2588,1.29017 -0.0433,0 -0.34706,-0.43763 -0.67505,-0.97253 -0.73208,-1.19391 -0.91572,-1.38282 -0.91572,-0.94198 0,0.72224 0.29136,1.68391 0.86907,2.86855 0.34581,0.70909 0.61422,1.41993 0.61422,1.6267 0,0.44837 0.18224,0.83985 0.39097,0.83985 0.0851,0 0.23084,-0.20616 0.32385,-0.45811 z m -23.31261,-0.12217 c 0.0641,-0.25197 0.32417,-0.81545 0.57772,-1.25218 0.49151,-0.8466 0.97914,-2.37559 1.06168,-3.32896 0.0276,-0.31916 0.035,-0.58028 0.0165,-0.58028 -0.30948,0 -1.21638,1.19799 -1.57214,2.07678 l -0.17309,0.42758 -0.0106,-0.36649 c -0.006,-0.20157 -0.0361,-0.58639 -0.0674,-0.85515 -0.0312,-0.26877 -0.0264,-0.41994 0.0108,-0.33595 0.12693,0.28673 0.27343,0.15282 0.60151,-0.54974 0.75184,-1.61006 1.5567,-5.03926 1.18276,-5.03926 -0.14196,0 -1.03306,1.51174 -1.39533,2.36719 -0.18109,0.42763 -0.39339,1.15013 -0.47176,1.60556 -0.126,0.73218 -0.15418,0.79059 -0.24327,0.50444 -0.1436,-0.46124 -0.24898,-0.40537 -0.52332,0.27743 -0.58363,1.45256 -0.58544,2.41994 -0.008,4.34955 0.31115,1.04002 0.37431,1.1576 0.62183,1.1576 0.22153,0 0.29835,-0.0898 0.39221,-0.45812 z m -0.31811,-4.67277 c 0,-0.16797 0.0259,-0.23669 0.0576,-0.1527 0.0316,0.0839 0.0316,0.22142 0,0.30541 -0.0316,0.0839 -0.0576,0.0152 -0.0576,-0.15271 z m 22.99993,-0.51919 c -0.0769,-1.5308 -0.4598,-2.90741 -1.10722,-3.97991 -0.25032,-0.41466 -0.48915,-0.75394 -0.53075,-0.75394 -0.16539,0 0.0645,2.06921 0.32568,2.93193 0.35679,1.17835 1.13785,3.0541 1.27172,3.0541 0.0592,0 0.0766,-0.53566 0.0405,-1.25218 z"
       id="path4762"
       inkscape:connector-curvature="0" />
    <path
       style="fill:#0000ff;fill-opacity:1;stroke:#ff0000;stroke-width:0.02;stroke-miterlimit:4;stroke-dasharray:none;stroke-opacity:1"
       d="m 34.530785,235.0834 -0.0309,-2.41273 h -9.555822 -9.555734 v -8.15444 l 10e-6,-8.15444 h 2.281969 2.281968 v -8.12879 -8.12881 l -2.282088,0.0355 -2.282089,0.0355 v -8.12389 -8.1239 l 2.282089,0.0355 2.282088,0.0355 v -8.25097 -8.25097 l 30.43591,-1e-5 30.435921,-1e-5 v 8.15446 8.15444 l 2.25185,0.0332 2.251858,0.0332 0.0301,8.12133 0.0301,8.12134 -2.310511,-2e-5 -2.310509,-10e-6 v 8.12389 8.1239 l 2.310509,-2e-5 2.310511,-2e-5 -0.0301,8.12325 -0.0301,8.12326 -10.181741,0.0312 -10.181738,0.0312 -0.0309,2.41273 -0.0309,2.41274 H 49.732176 34.561825 Z m 10.559419,-20.5892 c 0.358161,-0.17557 0.680191,-0.40004 0.715592,-0.49882 0.0641,-0.1789 -0.7595,-2.1632 -2.01209,-4.84764 -0.59464,-1.27441 -1.583862,-2.72415 -1.744631,-2.55686 -0.126299,0.13143 0.39039,2.84647 0.708771,3.72436 0.182629,0.50362 0.303509,0.91567 0.2686,0.91567 -0.0349,0 -0.960202,-0.49688 -2.056201,-1.10417 -1.09599,-0.60729 -2.02342,-1.07131 -2.06093,-1.03115 -0.0375,0.0402 0.0792,0.37446 0.25935,0.74288 0.64699,1.32306 1.79719,2.08117 4.546391,2.99653 0.863791,0.28761 1.5528,0.58034 1.531099,0.65051 -0.0226,0.0731 -0.497859,0.14276 -1.11384,0.16312 -0.892728,0.0296 -1.23158,-0.0169 -2.004201,-0.27487 -0.511389,-0.17071 -0.960809,-0.3104 -0.998689,-0.3104 -0.31076,0 0.69756,1.25146 1.285101,1.59498 0.58843,0.34404 1.789218,0.27037 2.675678,-0.16414 z m 11.685842,-0.0445 c 0.411329,-0.32883 0.99955,-1.12216 0.90616,-1.22215 -0.0417,-0.0447 -0.354261,-0.0145 -0.694481,0.067 -1.033679,0.24768 -2.516089,0.36774 -3.221831,0.26094 -0.50292,-0.0761 -0.70698,-0.0612 -0.826108,0.0604 -0.278051,0.28378 -0.0571,0.49835 0.860538,0.83551 1.107951,0.40711 2.465261,0.40633 2.975722,-0.002 z m -9.919251,-1.28861 c 0.28584,-0.30605 0.104161,-0.65013 -0.992769,-1.88025 -0.621332,-0.69676 -1.256941,-1.54026 -1.412471,-1.87442 -0.155519,-0.33416 -0.309549,-0.5789 -0.34227,-0.54387 -0.178059,0.19064 0.89162,2.74738 1.630471,3.89718 0.273169,0.4251 0.422519,0.54796 0.66612,0.54796 0.172689,0 0.375608,-0.066 0.450919,-0.1466 z m 5.724771,-0.18936 c 0.81325,-0.79677 2.39826,-4.30627 1.944849,-4.30627 -0.064,0 -0.116268,0.0694 -0.116268,0.15434 0,0.29502 -0.842222,1.4906 -1.797262,2.55134 -0.990021,1.09958 -1.06004,1.28192 -0.68499,1.78384 0.165589,0.22158 0.270481,0.19218 0.653671,-0.18325 z m 1.915089,-0.0941 c 2.12961,-0.53499 3.550991,-1.12747 4.46092,-1.85946 0.395412,-0.31808 1.043421,-1.30129 1.043421,-1.58314 0,-0.0991 -0.501869,0.11695 -1.318291,0.56734 -1.3251,0.731 -2.431109,1.22853 -2.731051,1.22853 -0.137959,0 -0.136739,-0.0842 0.008,-0.58028 0.522901,-1.78654 0.96022,-3.50986 0.96022,-3.78387 0,-0.28985 -0.0294,-0.2719 -0.394851,0.24047 -0.21717,0.30452 -0.54542,0.60987 -0.729419,0.67855 -0.244081,0.0912 -0.373089,0.25175 -0.476951,0.59391 -0.24361,0.80255 -1.102479,2.81108 -1.638149,3.83095 -0.281631,0.53619 -0.489069,0.9749 -0.460989,0.9749 0.0281,0 0.60261,-0.13856 1.276699,-0.3079 z m -12.456261,-2.91328 c 0.0859,-0.23954 -0.737869,-5.66918 -0.938009,-6.183 -0.1914,-0.49137 -0.82913,-1.24604 -0.9727,-1.15103 -0.1527,0.10104 -0.1079,0.9352 0.17111,3.1855 l 0.26013,2.098 -1.33064,-1.31978 c -1.96606,-1.95001 -2.32528,-2.13974 -1.81172,-0.95692 0.85327,1.96528 2.44455,3.80422 3.729,4.30938 0.5559,0.21862 0.818981,0.22388 0.892829,0.0178 z m 16.212101,-0.19863 c 0.73615,-0.34508 1.43274,-1.11812 2.29244,-2.54402 1.294021,-2.14625 1.325771,-2.21069 1.12872,-2.29165 -0.288449,-0.11852 -0.649499,0.17033 -2.029259,1.62346 -0.99274,1.04552 -1.31703,1.32557 -1.289,1.11311 0.02061,-0.15613 0.0925,-1.081 0.159798,-2.05526 0.0673,-0.97425 0.149871,-2.00501 0.183513,-2.29056 0.0336,-0.28557 0.01659,-0.51921 -0.0378,-0.51921 -0.131241,0 -0.79322,1.51865 -0.931899,2.13787 -0.0602,0.26876 -0.21953,1.20332 -0.35411,2.07679 -0.134591,0.87347 -0.362202,1.90225 -0.505831,2.28618 -0.143618,0.38394 -0.229661,0.73175 -0.191198,0.77293 0.111619,0.11951 1.054928,-0.066 1.574699,-0.30964 z m -18.34678,-5.69879 c -0.14771,-2.99269 -0.45672,-5.49945 -0.66125,-5.36411 -0.20538,0.13591 -0.58382,1.94018 -0.66755,3.18255 l -0.0906,1.3438 -0.32566,-0.6719 c -0.48004,-0.99037 -1.38582,-2.47245 -1.71091,-2.79945 l -0.28392,-0.28557 -0.069,0.29433 c -0.1413,0.6028 0.16166,1.96983 0.69456,3.13404 0.45155,0.98646 0.68764,1.31881 1.77905,2.50436 1.22715,1.333 1.26062,1.35892 1.34764,1.04414 0.049,-0.17754 0.0435,-1.24952 -0.0124,-2.38219 z m 19.988461,1.91818 c 1.34262,-1.07612 2.267469,-2.73342 2.77386,-4.97061 0.15013,-0.66325 0.254519,-1.22749 0.23196,-1.25387 -0.0885,-0.10341 -0.388159,0.28719 -1.479269,1.92785 l -1.134491,1.70586 -0.0708,-1.79288 c -0.0715,-1.81235 -0.35818,-3.33847 -0.553659,-2.94735 -0.0487,0.0975 -0.149942,0.97428 -0.224981,1.94854 -0.0751,0.97425 -0.23554,2.70586 -0.35665,3.84799 -0.121132,1.14215 -0.220221,2.11986 -0.220221,2.17272 0,0.13369 0.309002,-0.057 1.03418,-0.63825 z m -13.328351,-0.95116 c 0.235342,-0.10018 0.42495,-0.24485 0.421352,-0.32154 -0.004,-0.0767 -0.263771,-0.36691 -0.578171,-0.64492 -0.520811,-0.46052 -0.600702,-0.49374 -0.898231,-0.3735 -0.69909,0.28253 -1.232461,-0.36542 -1.3393,-1.62705 l -0.0588,-0.69505 -1.123359,-0.59178 c -0.61784,-0.32549 -1.16336,-0.54896 -1.21225,-0.49661 -0.0489,0.0524 -0.0887,0.5991 -0.0884,1.21502 4.5e-4,0.90831 0.05,1.23521 0.262559,1.73065 0.432951,1.00937 1.32597,1.84029 2.180471,2.02882 0.557059,0.12291 1.911901,-0.002 2.434111,-0.22404 z m 7.410529,-3.62072 c 0.0438,-1.26753 0.108141,-2.33509 0.142942,-2.37235 0.0348,-0.0373 1.01823,-0.0934 2.18541,-0.12469 1.954909,-0.0525 2.143969,-0.0772 2.39961,-0.31526 0.160599,-0.1495 0.306199,-0.45128 0.34563,-0.71642 l 0.0682,-0.45812 h -2.486408 -2.486401 l 0.0743,-3.35951 0.0743,-3.35951 h -1.181031 -1.181039 l -0.072,0.64137 c -0.0395,0.35274 -0.0724,1.11369 -0.073,1.69097 -5.29e-4,0.5773 -0.0346,1.80046 -0.0758,2.71815 l -0.0748,1.66853 h -1.066239 -1.066261 v -4.03141 -4.0314 h -1.258109 -1.258102 l 0.0315,4.03146 0.0315,4.03147 -0.855739,0.002 c -1.345322,0.003 -3.080682,0.4848 -3.080682,0.85488 0,0.0648 0.462632,0.36657 1.028052,0.67061 l 1.02806,0.55281 0.426699,-0.22962 c 0.23469,-0.12629 0.659611,-0.25648 0.94425,-0.2893 l 0.517551,-0.0597 -0.0867,0.95984 c -0.0476,0.52791 -0.167899,1.29555 -0.267218,1.70585 -0.0993,0.41032 -0.164841,0.75604 -0.145632,0.76828 0.01921,0.0122 0.354451,0.31268 0.744982,0.66763 0.390519,0.35495 0.763738,0.60983 0.829378,0.5664 0.372499,-0.24649 0.963941,-2.03495 1.188789,-3.59478 l 0.133472,-0.92588 1.09429,-0.0348 1.09428,-0.0348 -0.0403,0.52345 c -0.0839,1.08964 -0.133649,4.11559 -0.0688,4.18499 0.0372,0.0399 0.5837,0.0569 1.214411,0.0379 l 1.14677,-0.0346 z m -15.640609,-0.50654 c 0.0388,-0.40239 0.2295,-1.29548 0.4237,-1.98464 0.19418,-0.68916 0.4132,-1.71316 0.48668,-2.27556 0.12979,-0.99333 0.0748,-1.90771 -0.11484,-1.90771 -0.15102,0 -0.69546,1.4034 -1.03658,2.67198 -0.24696,0.91844 -0.33116,1.10925 -0.38424,0.87078 -0.0374,-0.16799 -0.17627,-0.82766 -0.30866,-1.46597 -0.54548,-2.63019 -0.82901,-3.31022 -1.21005,-2.90224 -0.34247,0.36667 -0.13492,2.71816 0.38517,4.36394 0.0963,0.3047 0.34148,0.91134 0.54486,1.34807 0.20337,0.43674 0.45903,1.08567 0.56812,1.44207 0.14544,0.47518 0.2486,0.63772 0.38679,0.60944 0.14014,-0.0286 0.20653,-0.22606 0.25905,-0.77016 z m 23.48578,-0.96502 c 0.635381,-1.37328 1.026131,-3.08848 1.112542,-4.88361 0.0587,-1.21774 0.0439,-1.44306 -0.0909,-1.39607 -0.0885,0.0308 -0.2467,0.24822 -0.351642,0.48312 -0.327578,0.73322 -0.984369,2.8529 -1.13062,3.6488 l -0.139808,0.76087 -0.494371,-1.51097 c -0.850729,-2.60008 -0.855399,-2.61133 -0.98359,-2.36608 -0.176271,0.33723 0.0011,1.93287 0.373499,3.35947 0.184139,0.7055 0.41366,1.68739 0.51004,2.18198 0.0964,0.49459 0.205491,0.95171 0.242501,1.01581 0.122381,0.21202 0.48156,-0.27575 0.95236,-1.29332 z m -0.307009,-4.19503 c 0.402929,-1.09156 0.571058,-1.96378 0.571058,-2.96248 0,-1.26272 -0.415478,-2.92727 -0.664199,-2.66097 -0.0414,0.0444 -0.15635,0.66122 -0.2554,1.3708 -0.0991,0.7096 -0.2155,1.29017 -0.258799,1.29017 -0.0433,0 -0.34706,-0.43763 -0.67505,-0.97253 -0.732081,-1.19391 -0.915721,-1.38282 -0.915721,-0.94198 0,0.72224 0.29136,1.68391 0.869069,2.86855 0.345811,0.70909 0.614223,1.41993 0.614223,1.6267 0,0.44837 0.182239,0.83985 0.390969,0.83985 0.0851,0 0.230838,-0.20616 0.32385,-0.45811 z m -23.312611,-0.12217 c 0.0641,-0.25197 0.32417,-0.81545 0.57772,-1.25218 0.49151,-0.8466 0.97914,-2.37559 1.06168,-3.32896 0.0276,-0.31916 0.035,-0.58028 0.0165,-0.58028 -0.30948,0 -1.21638,1.19799 -1.57214,2.07678 l -0.17309,0.42758 -0.0106,-0.36649 c -0.006,-0.20157 -0.0361,-0.58639 -0.0674,-0.85515 -0.0312,-0.26877 -0.0264,-0.41994 0.0108,-0.33595 0.12693,0.28673 0.27343,0.15282 0.60151,-0.54974 0.75184,-1.61006 1.5567,-5.03926 1.18276,-5.03926 -0.14196,0 -1.03306,1.51174 -1.39533,2.36719 -0.18109,0.42763 -0.39339,1.15013 -0.47176,1.60556 -0.126,0.73218 -0.15418,0.79059 -0.24327,0.50444 -0.1436,-0.46124 -0.24898,-0.40537 -0.52332,0.27743 -0.58363,1.45256 -0.58544,2.41994 -0.008,4.34955 0.31115,1.04002 0.37431,1.1576 0.62183,1.1576 0.22153,0 0.29835,-0.0898 0.39221,-0.45812 z m -0.31811,-4.67277 c 0,-0.16797 0.0259,-0.23669 0.0576,-0.1527 0.0316,0.0839 0.0316,0.22142 0,0.30541 -0.0316,0.0839 -0.0576,0.0152 -0.0576,-0.15271 z m 22.999931,-0.51919 c -0.0769,-1.5308 -0.459801,-2.90741 -1.107221,-3.97991 -0.250319,-0.41466 -0.489151,-0.75394 -0.530749,-0.75394 -0.165391,0 0.0645,2.06921 0.325679,2.93193 0.35679,1.17835 1.137851,3.0541 1.271719,3.0541 0.0592,0 0.0766,-0.53566 0.0405,-1.25218 z"
       id="path4762-7"
       inkscape:connector-curvature="0" />
  </g>
</svg>
