<?xml version="1.0" encoding="UTF-8" standalone="no"?>
<!-- Created with Inkscape (http://www.inkscape.org/) -->

<svg
   xmlns:dc="http://purl.org/dc/elements/1.1/"
   xmlns:cc="http://creativecommons.org/ns#"
   xmlns:rdf="http://www.w3.org/1999/02/22-rdf-syntax-ns#"
   xmlns:svg="http://www.w3.org/2000/svg"
   xmlns="http://www.w3.org/2000/svg"
   xmlns:sodipodi="http://sodipodi.sourceforge.net/DTD/sodipodi-0.dtd"
   xmlns:inkscape="http://www.inkscape.org/namespaces/inkscape"
   width="210mm"
   height="297mm"
   viewBox="0 0 210 297"
   version="1.1"
   id="svg8"
   sodipodi:docname="LOGO.svg"
   inkscape:version="0.92.4 (5da689c313, 2019-01-14)">
  <defs
     id="defs2" />
  <sodipodi:namedview
     id="base"
     pagecolor="#ffffff"
     bordercolor="#666666"
     borderopacity="1.0"
     inkscape:pageopacity="0.0"
     inkscape:pageshadow="2"
     inkscape:zoom="1.3504346"
     inkscape:cx="157.08958"
     inkscape:cy="840.62146"
     inkscape:document-units="mm"
     inkscape:current-layer="layer2"
     showgrid="false"
     showguides="false"
     inkscape:window-width="1680"
     inkscape:window-height="987"
     inkscape:window-x="-8"
     inkscape:window-y="-8"
     inkscape:window-maximized="1"
     inkscape:snap-text-baseline="true" />
  <metadata
     id="metadata5">
    <rdf:RDF>
      <cc:Work
         rdf:about="">
        <dc:format>image/svg+xml</dc:format>
        <dc:type
           rdf:resource="http://purl.org/dc/dcmitype/StillImage" />
      </cc:Work>
    </rdf:RDF>
  </metadata>
  <g
     inkscape:label="Layer 1"
     inkscape:groupmode="layer"
     id="layer1" />
  <g
     inkscape:groupmode="layer"
     id="layer2"
     inkscape:label="Layer 2">
    <path
       style="fill:#0000ff;fill-opacity:1;stroke:#fb0000;stroke-width:0.02;stroke-miterlimit:4;stroke-dasharray:none;stroke-opacity:1"
       d="m 52.271642,125.07463 -0.718154,-0.17724 0.564264,-0.0724 c 0.310345,-0.0399 1.464521,-0.11804 2.564836,-0.17377 1.100314,-0.0557 2.531492,-0.16653 3.180396,-0.24621 2.318175,-0.28463 2.429178,-0.29044 2.256968,-0.1181 -0.09895,0.099 -1.030837,0.30198 -2.607534,0.5679 -2.77295,0.46768 -4.023898,0.52016 -5.240776,0.21985 z m -1.641495,-1.14487 c -3.228562,-0.13101 -4.842607,-0.39775 -7.386726,-1.22071 -0.677117,-0.21902 -1.913362,-0.61137 -2.747211,-0.87186 -2.298185,-0.71796 -3.577758,-1.36107 -6.534475,-3.28423 -4.573469,-2.97475 -8.307944,-7.06704 -10.975622,-12.02723 -1.003235,-1.86538 -1.628412,-3.36584 -2.416719,-5.80025 -1.707765,-5.273852 -2.078987,-10.200317 -1.220987,-16.20365 0.54177,-3.7907 2.648018,-9.473358 4.737779,-12.782523 l 0.610865,-0.967314 -0.434844,-0.673646 c -0.900542,-1.395087 -2.450763,-4.704422 -3.188,-6.805585 -0.709773,-2.022889 -0.820455,-2.41521 -1.264756,-4.483015 -0.7378,-3.433775 -0.870152,-4.553747 -0.872633,-7.384318 -0.0021,-2.402571 0.101292,-4.386248 0.222325,-4.265255 0.03126,0.03125 0.09337,1.361398 0.138019,2.955878 0.06786,2.423569 0.132826,3.243894 0.396086,5.001536 0.306365,2.045434 0.614917,3.404634 0.694891,3.061064 0.02171,-0.09327 -0.05483,-0.658069 -0.170083,-1.255115 -0.616054,-3.191281 -0.657427,-6.305732 -0.151375,-11.395306 0.307626,-3.093926 1.13657,-6.234672 2.515505,-9.53087 0.589339,-1.408753 1.798221,-3.580564 1.943177,-3.491006 0.100087,0.06184 0.349068,-0.247311 0.266032,-0.330319 -0.03616,-0.03615 0.05771,-0.27733 0.208591,-0.535961 0.378937,-0.649538 2.692629,-3.760373 2.764165,-3.716512 0.07505,0.04602 0.65452,-0.507287 0.65452,-0.624966 0,-0.04918 -0.05771,-0.05569 -0.128242,-0.01446 -0.07053,0.04123 -0.04004,-0.02556 0.06777,-0.148416 0.107805,-0.122858 0.219798,-0.199597 0.248873,-0.170531 0.02907,0.02906 0.168363,-0.05142 0.309528,-0.178852 l 0.256664,-0.231698 -0.221298,0.30768 c -0.121714,0.169224 -0.640007,0.838428 -1.151761,1.48712 -1.495269,1.895378 -3.09079,4.325814 -2.939243,4.477311 0.02605,0.02604 0.217285,-0.232263 0.424959,-0.574019 0.398848,-0.656361 0.583461,-0.839564 0.306504,-0.304163 -0.232462,0.449387 -0.114575,0.483968 0.156288,0.04585 0.124332,-0.201109 0.31378,-0.412584 0.420995,-0.469944 0.107215,-0.05736 0.428037,-0.449621 0.712938,-0.871688 1.887325,-2.795984 5.695256,-6.4477 8.604405,-8.251423 2.059097,-1.276676 6.128376,-2.95674 8.833605,-3.647088 1.626925,-0.415176 1.387213,-0.274495 -0.872044,0.51178 -2.294504,0.798542 -4.188232,1.557522 -5.367712,2.151305 -1.280163,0.644469 -3.557219,2.056788 -2.480686,1.538618 l 0.359077,-0.172835 -0.196616,0.22045 c -0.108138,0.121248 -0.749713,0.62013 -1.425721,1.108628 -0.676009,0.488498 -1.533728,1.158497 -1.906044,1.488887 -1.171633,1.039697 -3.177754,3.256749 -4.308843,4.76189 -1.079009,1.435838 -2.21141,3.205428 -2.113721,3.303086 0.02787,0.02786 0.06523,0.03143 0.08303,0.0079 0.01779,-0.0235 0.591783,-0.827315 1.27554,-1.786251 1.135216,-1.592085 1.87251,-2.481576 1.87251,-2.259047 0,0.04781 -0.269689,0.460275 -0.599309,0.916588 -1.202057,1.664078 -2.768753,4.024166 -3.070727,4.625775 -0.337944,0.67327 -1.090135,2.424658 -1.199701,2.793362 -0.03839,0.12917 -0.02423,0.23076 0.03216,0.23076 0.0554,0 0.590731,-0.961849 1.189619,-2.137443 0.725878,-1.424872 1.404295,-2.583525 2.034994,-3.47552 0.520359,-0.735943 1.0987,-1.585559 1.285203,-1.888036 0.186502,-0.302477 0.648172,-0.87485 1.025934,-1.271941 0.377761,-0.39709 0.775569,-0.85861 0.884017,-1.0256 0.108447,-0.166989 0.777869,-0.899217 1.487604,-1.627174 0.875023,-0.897488 1.176678,-1.260657 0.937071,-1.12816 -0.194346,0.107469 -0.97543,0.81845 -1.735744,1.579958 -0.93584,0.93731 -1.147398,1.119522 -0.654924,0.56408 1.484141,-1.673906 3.454687,-3.356795 4.14961,-3.543857 0.2318,-0.0624 0.480369,-0.227789 0.614095,-0.408605 0.123566,-0.167077 0.273712,-0.303776 0.333656,-0.303776 0.05994,0 0.786035,-0.407623 1.613534,-0.905829 0.827499,-0.498205 2.120157,-1.187682 2.872574,-1.53217 2.620095,-1.199591 7.235537,-2.43918 10.742546,-2.885173 1.272647,-0.161845 1.819621,-0.178463 3.603552,-0.109479 2.604532,0.100716 5.125319,0.355187 6.206902,0.626581 0.451411,0.11327 1.444003,0.406227 2.205759,0.651017 0.761756,0.244789 1.992801,0.63386 2.735656,0.864602 1.556943,0.483609 2.289852,0.797472 3.754067,1.60765 2.498963,1.382727 4.822995,3.036798 7.067905,5.030402 3.01753,2.679739 6.29823,7.389312 7.97519,11.448685 0.7261,1.757649 1.74078,5.024828 2.00534,6.457002 0.72608,3.93055 0.88695,6.369412 0.6276,9.5147 -0.29405,3.566116 -0.59752,5.194288 -1.46237,7.845837 -1.2048,3.693776 -2.45412,6.424292 -4.06042,8.874424 -0.16377,0.249798 -0.15856,0.276336 0.14073,0.717919 0.35865,0.529167 1.72532,3.209882 2.38746,4.682995 1.26948,2.824309 2.19317,6.168699 2.80312,10.14925 0.24093,1.572356 0.28027,2.141997 0.27871,4.035802 -0.002,2.417419 -0.11069,4.204958 -0.2557,4.204958 -0.0526,0 -0.0942,-0.925724 -0.0957,-2.128119 -0.003,-2.438835 -0.0789,-3.359906 -0.51695,-6.274541 -0.26618,-1.771088 -0.4855,-2.673816 -0.64961,-2.673816 -0.0195,0 0.006,0.219222 0.056,0.48716 0.41219,2.196381 0.51539,3.076884 0.61001,5.204918 0.10799,2.428941 0.0655,3.495522 -0.27547,6.922798 -0.32456,3.261778 -1.23538,6.736249 -2.58629,9.865829 -0.56988,1.32019 -1.7368,3.39376 -1.86522,3.31442 -0.10254,-0.0633 -0.36124,0.23794 -0.27679,0.32237 0.0343,0.0343 -0.0602,0.27545 -0.21,0.53596 -0.40102,0.69748 -2.71927,3.8044 -2.801,3.7539 -0.1066,-0.0659 -0.54027,0.43424 -0.47213,0.54446 0.0328,0.053 -0.0316,0.17899 -0.14314,0.27988 -0.11152,0.1009 -0.20277,0.14517 -0.20277,0.0984 0,-0.0468 -0.12411,0.0268 -0.2758,0.16359 l -0.27579,0.24863 0.19885,-0.27495 c 0.10937,-0.15123 0.57455,-0.7512 1.03373,-1.33328 1.7429,-2.20936 3.25208,-4.49376 3.08147,-4.66432 -0.0258,-0.0258 -0.21685,0.23271 -0.42452,0.57446 -0.39885,0.65636 -0.58346,0.83957 -0.3065,0.30416 0.23246,-0.44938 0.11457,-0.48396 -0.15629,-0.0458 -0.12433,0.20111 -0.31378,0.41258 -0.421,0.46994 -0.10721,0.0574 -0.43368,0.46061 -0.72549,0.8961 -0.65809,0.98214 -1.0402,1.44705 -2.62874,3.19836 -1.8048,1.98971 -3.51177,3.44975 -5.677823,4.85642 -1.925183,1.25026 -5.574651,2.82566 -8.463485,3.65353 -1.933523,0.55409 -1.859422,0.42908 0.16534,-0.27892 3.094645,-1.08214 5.848501,-2.31383 7.520623,-3.36371 0.571073,-0.35857 0.75739,-0.60577 0.259616,-0.34445 l -0.239622,0.12579 0.198893,-0.22386 c 0.109393,-0.12312 0.801898,-0.65736 1.538902,-1.18718 1.561706,-1.1227 2.583026,-2.0402 3.925496,-3.52645 1.61473,-1.78766 3.51051,-4.34555 4.17298,-5.63039 0.39699,-0.76996 -0.0688,-0.21349 -1.30708,1.56138 -0.72588,1.04047 -1.42993,1.96392 -1.56455,2.0521 -0.13462,0.0882 -0.24477,0.13555 -0.24477,0.10527 0,-0.0303 0.4781,-0.73517 1.06244,-1.56641 2.00163,-2.84734 2.38083,-3.4675 3.06256,-5.00864 0.7509,-1.69749 0.85657,-1.98966 0.71959,-1.98966 -0.0515,0 -0.61786,1.01334 -1.25849,2.25187 -0.7056,1.36413 -1.47015,2.67479 -1.93942,3.32468 -0.42605,0.59004 -0.99287,1.41124 -1.2596,1.82488 -0.26674,0.41365 -0.77504,1.05481 -1.12957,1.42482 -0.35453,0.37 -0.73106,0.80465 -0.83674,0.96588 -0.10568,0.16124 -0.76976,0.88539 -1.47575,1.60923 -0.70598,0.72384 -1.2423,1.31563 -1.19183,1.31508 0.19016,-0.002 1.05309,-0.75836 2.14364,-1.87875 0.62069,-0.63768 0.96762,-0.97174 0.77095,-0.74235 -1.40345,1.63689 -3.462244,3.46532 -4.321317,3.83778 -0.247925,0.10748 -0.562697,0.31637 -0.699492,0.46419 -0.136796,0.14782 -0.29526,0.26876 -0.352143,0.26876 -0.05688,0 -0.706716,0.36349 -1.444073,0.80775 -2.565906,1.54597 -4.004414,2.18441 -6.829397,3.031 -2.547439,0.76342 -4.984758,1.29335 -7.130243,1.55028 -1.306305,0.15643 -1.519917,0.15842 -4.411518,0.0411 z m -2.422819,-1.16866 c -0.02534,-0.0253 -0.506248,-0.14565 -1.068682,-0.26738 -0.562436,-0.12174 -1.645864,-0.40355 -2.407621,-0.62624 -0.761756,-0.2227 -1.939015,-0.56658 -2.616132,-0.76417 -1.014993,-0.29618 -2.743895,-0.96844 -4.744946,-1.845 -0.542589,-0.23768 -0.382931,-0.0793 0.372078,0.36909 1.589581,0.94405 4.914428,2.17719 7.300436,2.70764 1.463962,0.32546 3.313271,0.57442 3.164867,0.42606 z m 10.807559,-1.74595 c 0.297489,-0.13948 1.60273,-0.57964 2.900537,-0.97811 2.411129,-0.74031 3.448066,-1.17516 5.437452,-2.28022 1.040072,-0.57774 1.777072,-1.06389 4.626208,-3.05163 0.569491,-0.39732 1.411025,-1.10706 1.870075,-1.57721 0.45905,-0.47015 0.85874,-0.83073 0.88819,-0.80128 0.0294,0.0294 0.0535,-0.0153 0.0535,-0.0995 0,-0.0842 0.12073,-0.26495 0.26828,-0.4017 0.14755,-0.13675 0.5733,-0.64093 0.9461,-1.12039 0.3728,-0.47947 0.94796,-1.19483 1.27814,-1.58968 1.21238,-1.44987 1.62548,-2.17786 2.93842,-5.1782 0.69593,-1.59034 1.04348,-2.55477 1.4418,-4.000919 0.59184,-2.14876 1.06923,-8.652695 0.82807,-11.281595 -0.25702,-2.801723 -0.74716,-5.429997 -1.35798,-7.281758 -0.52854,-1.602336 -1.66805,-4.505299 -2.12454,-5.412399 -0.38624,-0.767483 -0.44636,-0.83812 -0.62985,-0.73995 -0.2128,0.113846 -0.26834,0.40229 -0.10936,0.567959 0.0514,0.05359 0.28728,0.535876 0.52412,1.071752 0.23685,0.535876 0.58243,1.297383 0.76795,1.692239 0.45524,0.968868 1.33553,3.724131 1.58191,4.95131 0.41904,2.087095 0.70189,7.709177 0.51972,10.330125 -0.14123,2.03198 -0.62943,4.542573 -1.35614,6.974076 -0.11736,0.39268 -0.1242,0.39782 -0.15981,0.11992 -0.0205,-0.15967 0.0355,-0.64888 0.12431,-1.087112 0.0888,-0.438236 0.1615,-0.943665 0.1615,-1.123174 0,-0.17951 0.0704,-0.494865 0.15649,-0.70079 0.0861,-0.205925 0.22433,-0.792881 0.30726,-1.304345 0.16591,-1.02334 0.32996,-4.768386 0.20374,-4.651248 -0.0435,0.04037 -0.14288,0.778805 -0.22084,1.640959 -0.16486,1.82317 -0.41433,3.369683 -0.56719,3.516192 -0.13737,0.131667 -0.0661,-1.130783 0.17377,-3.076798 0.14131,-1.146591 0.16401,-1.869713 0.11264,-3.589599 -0.0354,-1.184568 -0.10842,-2.430671 -0.16232,-2.769119 -0.0539,-0.338448 -0.17291,-1.261488 -0.26445,-2.051199 -0.17277,-1.490394 -0.27879,-1.845592 -1.94403,-6.512558 -0.44307,-1.241745 -1.13305,-2.666559 -1.29131,-2.666559 -0.11648,0 -0.0525,0.286047 0.16055,0.71792 0.1337,0.27101 0.30876,0.907109 0.22574,0.820269 -0.0268,-0.02809 -0.20728,-0.315176 -0.40094,-0.637973 l -0.35212,-0.586904 -1.22324,0.981735 c -1.63686,1.313685 -3.691731,2.668124 -5.098428,3.360549 -1.129214,0.555838 -3.514428,1.43746 -3.654645,1.350828 -0.03908,-0.02415 -0.738462,0.139745 -1.554178,0.364204 -2.044232,0.562504 -3.855606,1.015512 -4.016306,1.004439 -0.07383,-0.0051 0.02734,-0.05311 0.224835,-0.106709 1.665469,-0.45204 4.648587,-1.510935 6.514682,-2.312467 0.800583,-0.343869 2.379607,-1.224139 3.795957,-2.116162 1.180533,-0.743502 3.315983,-2.309913 3.554543,-2.60735 0.1758,-0.219186 -0.27649,0.09194 -1.60527,1.104282 -1.240487,0.945071 -2.571642,1.743376 -4.186874,2.510902 -1.146221,0.544661 -3.286248,1.320086 -3.47201,1.25806 -0.04761,-0.0159 0.40965,-0.255119 1.016137,-0.531604 0.606488,-0.276484 1.448957,-0.686318 1.872155,-0.91074 0.825654,-0.437847 4.056962,-2.562541 4.565412,-3.001911 0.43471,-0.375653 0.17224,-0.225891 -1.179829,0.673187 -0.648903,0.431499 -1.387576,0.900768 -1.641495,1.04282 -0.253918,0.142051 -0.923341,0.517044 -1.487604,0.833315 -0.981949,0.550385 -3.851879,1.819946 -4.091568,1.809973 -0.143843,-0.006 0.684159,-0.444546 1.629325,-0.862991 0.844081,-0.37369 3.416222,-1.815811 3.761731,-2.109084 0.364346,-0.309264 -1.246495,0.391779 -2.889545,1.257541 -0.761679,0.401346 -1.500352,0.739315 -1.641495,0.751044 -0.141144,0.01173 -0.579794,0.145432 -0.974779,0.29712 -1.111803,0.426973 -0.66851,0.157633 1.017752,-0.618376 0.841896,-0.387437 2.019155,-0.975834 2.616132,-1.30755 1.462413,-0.812605 3.721008,-2.313914 3.651131,-2.426942 -0.03102,-0.05018 0.163843,-0.241284 0.433029,-0.424686 0.269185,-0.183403 0.651015,-0.462508 0.848505,-0.620235 0.19749,-0.157728 0.59443,-0.460523 0.88208,-0.67288 0.8756,-0.646418 1.49963,-1.24177 1.42615,-1.360622 -0.049,-0.07923 -0.11964,-0.07309 -0.23984,0.02086 -0.15207,0.118848 -0.15542,0.11406 -0.0311,-0.0445 0.12243,-0.156153 0.0888,-0.237962 -0.2775,-0.675339 -0.22924,-0.273715 -0.90915,-0.953434 -1.5109,-1.510487 -0.60175,-0.557054 -1.043473,-1.029694 -0.9816,-1.050313 0.15967,-0.05321 1.88293,1.357718 2.72265,2.229177 l 0.70752,0.734264 0.34406,-0.333372 c 0.18924,-0.183354 0.34407,-0.366779 0.34407,-0.40761 0,-0.187148 -1.26102,-1.519289 -2.29541,-2.424867 -1.59445,-1.395897 -1.69629,-1.444569 -0.57476,-0.274675 1.1052,1.152859 1.66112,1.781162 1.43386,1.620547 -0.53837,-0.380478 -2.66246,-2.100054 -2.73061,-2.210592 -0.04696,-0.07617 0.0414,-0.05306 0.20429,0.05342 0.15789,0.103222 0.30789,0.166853 0.33335,0.141405 0.083,-0.08297 -1.408849,-1.397681 -2.104422,-1.854543 -0.807308,-0.53025 -1.653029,-1.023623 -1.653029,-0.964336 0,0.02333 0.357794,0.324579 0.795099,0.669453 0.773893,0.610318 1.668231,1.47125 1.359363,1.308586 -0.08464,-0.04458 -0.561717,-0.356676 -1.060171,-0.693557 -1.003254,-0.678049 -3.594103,-1.96461 -3.915611,-1.944407 -0.112852,0.0071 -0.736107,-0.186892 -1.385011,-0.431072 -1.686604,-0.634666 -1.964327,-0.651083 -0.718154,-0.04245 0.592477,0.289365 1.004316,0.544098 0.915196,0.566075 -0.08912,0.02197 -1.11294,-0.257487 -2.275157,-0.621029 -2.867962,-0.897098 -2.993281,-0.915055 -1.871732,-0.268206 1.937458,1.11742 4.200164,2.906527 5.899122,4.664395 l 0.666857,0.689979 -0.512967,-0.360101 c -2.013475,-1.413452 -5.620868,-3.050363 -8.398303,-3.810862 -4.448573,-1.218078 -8.55681,-1.119112 -13.006836,0.313334 -2.502097,0.805414 -4.923126,1.930565 -6.835643,3.1768 -0.477368,0.311062 -0.886884,0.546633 -0.910035,0.52349 -0.06287,-0.06285 1.722578,-1.745216 2.889793,-2.722947 2.780969,-2.32951 6.144619,-4.033034 9.281812,-4.700783 1.152972,-0.245409 4.115824,-0.248433 5.179812,-0.0053 0.39435,0.09012 0.729673,0.151181 0.745164,0.135694 0.01549,-0.01548 -0.179118,-0.159136 -0.432464,-0.319223 -0.541761,-0.342332 -1.802501,-1.699795 -2.161239,-2.327049 -0.273096,-0.477505 -0.334391,-1.187064 -0.145458,-1.683833 0.152475,-0.400911 0.982294,-1.345287 1.348394,-1.534543 0.169137,-0.08744 0.868603,-0.267531 1.554372,-0.400213 1.559496,-0.301729 3.034857,-0.313473 3.862982,-0.03075 0.310345,0.105951 0.91725,0.282969 1.348675,0.393372 2.02341,0.517794 5.347081,2.009181 8.448997,3.791205 2.944494,1.691588 4.921654,3.090008 6.596754,4.6658 l 0.85152,0.801038 -0.33856,0.369128 -0.33855,0.369131 0.36018,-0.329652 0.36017,-0.329651 0.90574,0.833722 c 0.70556,0.649467 0.92603,0.801653 0.99758,0.688612 0.38407,-0.6068 2.21138,-5.252331 2.65911,-6.760228 0.30231,-1.018131 0.80493,-3.467751 1.02975,-5.018723 0.15824,-1.09166 0.20172,-1.94749 0.20191,-3.974087 3.1e-4,-2.77915 -0.13589,-3.904639 -0.76076,-6.288625 -0.35975,-1.372519 -0.39349,-1.543181 -0.21378,-1.081434 0.0868,0.223127 0.24406,0.500039 0.34936,0.61536 0.25833,0.282896 0.34025,0.592234 0.23335,0.881122 -0.062,0.167538 -0.002,0.580948 0.19953,1.373784 0.54615,2.149056 0.63912,3.136885 0.50731,5.390366 -0.0643,1.099955 -0.20549,2.530667 -0.31369,3.179358 -0.10819,0.648692 -0.22698,1.4102 -0.26398,1.69224 -0.0995,0.758546 -0.91105,3.970843 -1.25668,4.974158 -0.4891,1.419769 -1.20207,3.157745 -1.76254,4.296452 -0.47756,0.970252 -0.56953,1.344346 -0.33049,1.344346 0.12759,0 1.6718,-3.219496 2.28744,-4.769038 0.6872,-1.729668 1.24629,-3.501135 1.5699,-4.974158 0.37796,-1.720384 0.69168,-4.024792 0.68414,-5.025272 -0.004,-0.47956 0.0198,-1.399146 0.052,-2.043527 0.0498,-0.997298 0.0346,-1.184968 -0.10208,-1.261456 -0.0883,-0.04942 -0.16061,-0.215646 -0.16061,-0.36939 0,-0.331019 -0.46463,-2.999793 -0.60575,-3.479351 -0.0539,-0.183326 -0.0583,-0.33332 -0.01,-0.33332 0.093,0 0.14625,0.143486 0.25647,0.691104 0.0368,0.182679 0.10542,0.355976 0.15257,0.385104 0.21812,0.134764 -0.78024,-3.53122 -1.592,-5.845811 -0.76248,-2.174056 -2.12974,-5.000668 -2.826,-5.842306 -0.23193,-0.280363 -0.50536,-0.672655 -0.60762,-0.87176 -0.18991,-0.369771 -2.8864,-3.333272 -4.29651,-4.721957 -1.07463,-1.058312 -2.049792,-1.818281 -3.84799,-2.998858 -1.700804,-1.116634 -5.052183,-2.852548 -6.475429,-3.354079 -0.960738,-0.33855 -3.178686,-0.938064 -4.155034,-1.123111 -1.343536,-0.254639 -4.666101,-0.52244 -6.471859,-0.521635 -2.121312,9.43e-4 -3.079478,0.08773 -5.205418,0.471499 -0.808077,0.145871 -1.487935,0.246523 -1.510795,0.223671 -0.04931,-0.04929 1.937238,-0.760533 2.672246,-0.956737 0.282132,-0.07531 1.205472,-0.209436 2.051868,-0.298052 2.226918,-0.233152 2.410946,-0.262509 2.410946,-0.384598 0,-0.07698 -0.302337,-0.08471 -1.000286,-0.02558 -1.709019,0.144797 -4.911906,0.220875 -5.013723,0.11909 -0.03753,-0.03752 -0.0098,-0.138563 0.06153,-0.224538 0.11013,-0.132654 0.09293,-0.155825 -0.113622,-0.153057 -0.133868,0.0018 -0.335731,0.07304 -0.448584,0.158319 -0.112853,0.08528 -0.597607,0.272313 -1.077231,0.415627 -4.327164,1.292974 -4.80236,1.469601 -6.606368,2.455535 -1.617098,0.883784 -1.856184,1.03241 -4.025371,2.502341 -1.582955,1.072675 -2.268964,1.61132 -3.069534,2.410159 -1.034819,1.03258 -1.957884,2.066229 -2.613065,2.926113 -0.193408,0.253836 -0.62172,0.784584 -0.951806,1.17944 -1.199175,1.434482 -1.872877,2.645987 -3.212867,5.77763 -1.450566,3.390068 -2.015256,6.829329 -2.031924,12.375483 -0.0072,2.391626 0.02382,2.984061 0.227447,4.345838 0.472562,3.160294 0.787874,4.378705 1.927609,7.448558 0.829837,2.235149 1.657672,4.051119 1.84676,4.051119 0.06587,0 0.178716,-0.071 0.250759,-0.157779 0.136004,-0.163821 0.142824,-0.146893 -1.238032,-3.07286 -0.484657,-1.026964 -1.374139,-3.787786 -1.635618,-5.076718 -0.273689,-1.349119 -0.381441,-2.566238 -0.522614,-5.903243 -0.172627,-4.080496 -0.02276,-5.957044 0.728492,-9.121792 0.286107,-1.205262 0.682149,-2.616398 0.754643,-2.688869 0.120212,-0.120172 0.05967,0.539044 -0.137016,1.491919 -0.108624,0.526246 -0.174397,1.016992 -0.146162,1.090548 0.02824,0.07356 -0.02195,0.309092 -0.111533,0.523414 -0.282114,0.674972 -0.477343,2.183419 -0.53671,4.146906 -0.03155,1.043548 -0.02511,1.867123 0.01431,1.830167 0.03942,-0.03696 0.138378,-0.798465 0.219896,-1.69224 0.136362,-1.495093 0.413477,-3.414913 0.50632,-3.507726 0.156103,-0.156052 0.149951,0.758918 -0.01327,1.974209 -0.290961,2.166343 -0.275105,6.319344 0.03215,8.420948 0.123702,0.84612 0.238768,1.792235 0.255702,2.102479 0.01693,0.310244 0.05692,0.587156 0.08887,0.61536 0.03195,0.0282 0.337787,0.85894 0.679647,1.846079 1.17427,3.39077 1.538389,4.360368 1.920915,5.115142 0.472168,0.931652 0.699524,0.872179 0.311854,-0.08158 -0.144558,-0.355641 -0.242215,-0.667229 -0.217018,-0.692419 0.0252,-0.02519 0.194061,0.213224 0.375252,0.529809 0.295813,0.51686 0.348246,0.561968 0.513716,0.441965 0.101352,-0.0735 0.754442,-0.576878 1.451311,-1.118608 1.615374,-1.255759 3.150052,-2.266046 4.478339,-2.948118 1.134616,-0.582623 2.372769,-1.082528 2.461495,-0.99383 0.03043,0.03042 0.01029,0.05531 -0.04475,0.05531 -0.05505,0 -0.1897,0.06888 -0.299231,0.153077 -0.124889,0.096 0.001,0.07207 0.33756,-0.06416 0.295188,-0.119481 0.515994,-0.250741 0.490678,-0.291689 -0.05032,-0.0814 0.665889,-0.319543 1.07578,-0.357703 0.141066,-0.01313 1.331267,-0.311145 2.64489,-0.662251 1.313623,-0.351106 2.444716,-0.615562 2.513539,-0.58768 0.06882,0.02788 0.04147,0.05434 -0.06078,0.05879 -0.313257,0.01364 -3.004093,0.922475 -4.756152,1.606393 -2.402247,0.937721 -3.889802,1.719441 -6.138025,3.225568 -1.075685,0.720623 -2.923913,2.118075 -2.923913,2.210782 0,0.08605 0.181268,-0.04036 1.487605,-1.037366 2.010343,-1.534312 4.616809,-2.913263 6.861792,-3.630231 1.152607,-0.368103 1.507355,-0.378252 0.610932,-0.01748 -1.130424,0.454949 -3.524275,1.73782 -4.626095,2.479135 -1.394157,0.938002 -2.795332,1.940414 -2.795332,1.999803 0,0.05727 0.576386,-0.304283 1.933615,-1.21292 1.014212,-0.678993 2.705746,-1.646093 3.91421,-2.23787 0.637394,-0.312128 2.844117,-1.224946 2.954414,-1.222103 0.136316,0.0035 -1.057192,0.635862 -1.746862,0.925529 -0.910512,0.382423 -3.82251,2.08143 -3.660167,2.135526 0.06971,0.02323 1.054031,-0.426116 2.187375,-0.998546 1.133343,-0.572431 2.140363,-1.04033 2.237821,-1.039776 0.09746,5.13e-4 0.466795,-0.109672 0.820747,-0.244949 0.353954,-0.135276 0.735886,-0.276989 0.848738,-0.314917 0.112853,-0.03793 -0.948989,0.505518 -2.359648,1.207658 -2.469047,1.22894 -5.656469,3.164739 -5.534854,3.361452 0.02747,0.04444 -0.100958,0.191345 -0.285402,0.326464 -2.544399,1.863972 -3.536197,2.685504 -3.367739,2.789583 0.05966,0.03686 0.154115,0.03882 0.209895,0.0044 0.05847,-0.03612 0.07517,0.0057 0.03943,0.09883 -0.07196,0.187458 0.476457,0.80542 1.859384,2.095181 0.508024,0.4738 0.962469,0.927118 1.009875,1.007375 0.316048,0.535044 -1.940954,-1.281547 -2.907513,-2.340168 l -0.564264,-0.618007 -0.378609,0.390832 -0.378608,0.390832 0.583795,0.659444 c 0.749655,0.846795 3.209493,3.108702 3.291359,3.026519 0.03435,-0.03449 -0.172642,-0.277959 -0.459988,-0.541052 -0.666586,-0.610327 -2.091653,-2.129347 -1.888498,-2.013006 0.171264,0.09808 1.150009,0.844735 2.128364,1.623668 0.632231,0.503363 0.809182,0.759285 0.289735,0.419041 -0.241221,-0.158002 -0.260902,-0.158746 -0.202907,-0.0077 0.08274,0.215539 1.322027,1.284632 2.074722,1.789791 0.561667,0.376954 1.868449,1.134246 1.763098,1.021732 -0.02821,-0.03013 -0.4668,-0.385924 -0.974638,-0.79065 -0.507837,-0.404725 -1.034854,-0.877689 -1.171149,-1.051027 -0.198618,-0.252604 -0.04588,-0.176888 0.769451,0.381444 1.058678,0.724971 3.875052,2.149832 4.043563,2.04572 0.05319,-0.03286 0.717691,0.172888 1.476669,0.457223 0.758979,0.284334 1.441313,0.514808 1.516297,0.512163 0.07498,-0.0026 -0.348419,-0.242152 -0.940896,-0.532235 -0.592477,-0.290084 -1.00798,-0.542555 -0.92334,-0.561046 0.08464,-0.01849 1.191315,0.29024 2.45928,0.686074 1.267964,0.395833 2.35258,0.719696 2.410258,0.719696 0.05768,0 -0.356494,-0.259534 -0.920379,-0.57674 -2.080439,-1.170324 -4.255592,-2.82911 -5.898435,-4.49818 l -0.974637,-0.990198 1.077231,0.683445 c 1.286549,0.816245 3.965908,2.143965 5.371797,2.661922 2.673624,0.985012 5.128491,1.482491 7.708865,1.562196 2.582837,0.07978 4.423322,-0.15578 7.078946,-0.906032 2.732013,-0.771832 4.826085,-1.747201 8.207474,-3.822847 0.52229,-0.320604 -1.823328,1.928053 -2.943341,2.821671 -3.059895,2.441384 -6.178408,3.98231 -9.199665,4.545761 -1.06453,0.198531 -3.875994,0.209187 -4.861854,0.01843 -0.380878,-0.0737 -0.692506,-0.124713 -0.692506,-0.113368 0,0.01135 0.273412,0.189333 0.60758,0.395527 0.72219,0.445615 2.126092,1.910378 2.44737,2.553467 0.402581,0.805828 0.262156,1.557097 -0.445916,2.385634 -0.27084,0.31692 -0.660213,0.661782 -0.865274,0.766361 -1.022841,0.521645 -4.418949,0.828013 -5.247705,0.473402 -0.206165,-0.08821 -0.814792,-0.277409 -1.352503,-0.420434 -2.81874,-0.74975 -6.176823,-2.335572 -10.364521,-4.894544 -2.371437,-1.449112 -3.764485,-2.553307 -6.0396,-4.787269 -0.774808,-0.760793 -1.427217,-1.363167 -1.449797,-1.338609 -0.240167,0.261198 -1.370101,2.985243 -2.273242,5.480329 -0.548122,1.514284 -1.154824,4.095463 -1.494607,6.358718 -0.193441,1.288489 -0.230416,1.954917 -0.227609,4.102398 0.0037,2.815276 0.109331,3.675964 0.755373,6.153598 0.405249,1.554167 0.462652,1.894043 0.200255,1.185678 -0.113652,-0.306813 -0.302363,-0.659703 -0.419359,-0.784198 -0.175563,-0.186817 -0.201008,-0.304435 -0.145669,-0.673344 0.04925,-0.328317 -0.01385,-0.77361 -0.237693,-1.677241 -0.505018,-2.038757 -0.579269,-2.9446 -0.435824,-5.316993 0.06873,-1.136772 0.189612,-2.436075 0.268618,-2.887338 0.07901,-0.451264 0.19218,-1.16662 0.251497,-1.58968 0.145143,-1.035189 1.044743,-4.570775 1.422206,-5.589518 0.167201,-0.451264 0.497758,-1.281999 0.734572,-1.846079 0.236814,-0.56408 0.495186,-1.200889 0.57416,-1.415132 0.07897,-0.214242 0.303039,-0.706051 0.49792,-1.092908 0.282942,-0.561665 0.327591,-0.725561 0.221611,-0.813489 -0.235332,-0.195244 -2.077808,3.802331 -3.138057,6.808568 -0.628322,1.781545 -1.268228,4.954063 -1.497295,7.423269 -0.05472,0.589787 -0.04213,0.739522 0.05699,0.678282 0.09731,-0.06012 0.10968,0.01509 0.05265,0.320008 -0.041,0.219228 -0.09583,0.922161 -0.121826,1.562071 -0.03692,0.908731 -0.01625,1.189425 0.09442,1.282 0.08543,0.07146 0.21275,0.633568 0.320641,1.415556 0.09842,0.713366 0.244736,1.544102 0.325139,1.846079 0.0804,0.301977 0.143609,0.641353 0.14046,0.754169 l -0.0057,0.20512 -0.08513,-0.20512 c -0.04682,-0.112816 -0.139232,-0.405759 -0.205354,-0.650985 -0.06612,-0.245225 -0.140582,-0.425511 -0.165466,-0.400635 -0.101987,0.101954 0.739831,3.247734 1.420393,5.307858 0.561671,1.700233 0.935293,2.615933 1.632002,3.999843 0.496962,0.98714 1.088697,2.02556 1.314966,2.3076 0.226269,0.28204 0.478627,0.65647 0.560796,0.83207 0.319077,0.68189 4.63997,5.21083 5.954915,6.24164 1.578172,1.23716 3.760344,2.60716 5.793252,3.63708 2.12168,1.07489 3.536396,1.61066 5.686157,2.15341 2.146077,0.54182 4.874451,0.82755 7.902096,0.82755 2.449612,0 3.238483,-0.0686 5.429902,-0.47186 0.781059,-0.14375 1.437588,-0.24388 1.458953,-0.22252 0.02137,0.0213 -0.433015,0.19447 -1.009733,0.3847 -0.576719,0.19023 -1.180762,0.41084 -1.342319,0.49025 -0.279703,0.13748 -2.379053,0.43911 -4.09759,0.58873 -0.538292,0.0469 -0.787087,0.10867 -0.759435,0.18864 0.02262,0.0654 0.175119,0.10964 0.338889,0.0983 1.551917,-0.10769 5.418283,-0.24152 5.547298,-0.19204 0.148049,0.0568 0.146123,0.0835 -0.0192,0.2661 -0.163982,0.18115 -0.165729,0.20299 -0.01624,0.20299 0.09213,0 0.410917,-0.11413 0.708406,-0.25361 z m 1.848441,-1.00275 c 0.02323,-0.0705 0.154035,-0.14109 0.290682,-0.15685 0.240596,-0.0278 0.242153,-0.0237 0.0493,0.1282 -0.241147,0.18993 -0.397453,0.20311 -0.339982,0.0286 z m 0.833924,-0.26103 c 0.09389,-0.15186 0.493706,-0.23227 0.44683,-0.0899 -0.02175,0.0661 -0.144926,0.13555 -0.273729,0.1544 -0.131429,0.0192 -0.207384,-0.009 -0.173101,-0.0645 z m -1.221692,-0.79439 c 0.280177,-0.0768 0.526883,-0.12221 0.548236,-0.10086 0.0513,0.0513 -0.706444,0.26016 -0.903757,0.24914 -0.08464,-0.005 0.07534,-0.0714 0.355521,-0.14828 z m 3.645623,-1.16957 c 0,-0.0533 0.473212,-0.32517 1.051582,-0.6042 1.245541,-0.6009 3.698519,-2.2182 5.206617,-3.43283 1.200449,-0.96685 3.127577,-2.90036 4.050977,-4.0644 2.45636,-3.09651 4.41552,-7.08894 5.28764,-10.775288 0.23374,-0.98804 0.22606,-0.360315 -0.0109,0.892728 -0.40714,2.15262 -2.1751,6.39141 -3.41045,8.17676 -0.53607,0.77473 -1.54365,1.88575 -4.173139,4.60158 -1.730602,1.78742 -3.848983,3.31953 -6.396635,4.62633 -1.288982,0.66117 -1.605652,0.77543 -1.605652,0.57932 z m 3.602582,-1.01342 c 0.134569,-0.10299 0.844843,-0.59722 1.578386,-1.09829 1.095198,-0.74812 1.68368,-1.26029 3.290618,-2.86391 1.58809,-1.58481 2.22941,-2.31677 3.40278,-3.88373 0.79522,-1.06197 1.56279,-2.16962 1.7057,-2.46144 1.03408,-2.11159 1.9549,-4.18178 2.0054,-4.5086 0.0725,-0.46921 0.27659,-0.50523 0.2377,-0.0419 -0.029,0.34495 -1.02812,3.11833 -1.35177,3.75213 -0.34654,0.67864 -2.14747,3.60297 -2.7429,4.4539 -0.66852,0.95539 -2.90471,3.28772 -3.997501,4.16937 -0.917338,0.7401 -2.279044,1.63975 -3.360978,2.22052 -0.878883,0.47177 -1.172521,0.57202 -0.767435,0.262 z M 25.490539,101.36531 c -0.03719,-0.0602 -0.04562,-0.13138 -0.01873,-0.15827 0.02689,-0.0269 0.07623,0.0223 0.109647,0.10939 0.06937,0.18072 0.01024,0.21251 -0.09092,0.0489 z m -0.342957,-0.67707 c -0.0065,-0.0659 -0.04178,-0.20435 -0.0783,-0.30768 -0.05152,-0.14577 -0.03786,-0.16158 0.06092,-0.0706 0.07002,0.0645 0.105256,0.20297 0.0783,0.30768 -0.02696,0.10471 -0.05437,0.13646 -0.06092,0.0706 z M 56.817813,84.687357 c 0.07406,-0.02963 0.162547,-0.02598 0.196638,0.0081 0.03409,0.03408 -0.0265,0.05832 -0.134654,0.05387 -0.119516,-0.0049 -0.143825,-0.02922 -0.06198,-0.06196 z m 1.455545,-0.871749 c 0.479624,-0.111106 1.749218,-0.404282 2.821319,-0.651501 1.072101,-0.247219 2.064693,-0.48127 2.205758,-0.520112 0.141066,-0.03884 0.230715,-0.04189 0.199219,-0.0068 -0.09813,0.109408 -2.642603,0.777392 -4.179189,1.097137 -1.623658,0.337863 -2.42238,0.399846 -1.047107,0.08126 z m 3.795956,-2.105664 c 0.08464,-0.03137 0.453923,-0.168439 0.82063,-0.304594 0.366708,-0.136154 0.620626,-0.204846 0.564264,-0.152648 -0.12963,0.120053 -1.248247,0.533194 -1.41439,0.522379 -0.06934,-0.0045 -0.05629,-0.03334 0.0295,-0.06514 z m 6.22666,-3.101419 c 0.576245,-0.351246 1.178348,-0.635978 1.23182,-0.582522 0.05206,0.05204 -1.330743,0.783272 -1.479852,0.782553 -0.04373,-2.06e-4 0.06789,-0.09023 0.248032,-0.200031 z M 52.196662,74.893338 c -1.679726,-0.218186 -3.084326,-1.598139 -3.342278,-3.28363 -0.465416,-3.041096 2.615918,-5.43196 5.523915,-4.286109 1.694748,0.667789 2.642856,2.13446 2.536822,3.924325 -0.06345,1.070983 -0.315973,1.652125 -1.054033,2.425652 -0.966364,1.0128 -2.170929,1.41376 -3.664426,1.219762 z m 0.367705,-0.898995 c 0.160687,-0.06107 0.617786,-0.05971 1.237658,0.0037 0.722844,0.07393 1.042086,0.06884 1.206691,-0.01922 0.219339,-0.117349 0.219855,-0.122693 0.02579,-0.267068 -0.19228,-0.143047 -0.189838,-0.153932 0.0841,-0.374952 0.155172,-0.125196 0.282132,-0.297431 0.282132,-0.382744 0,-0.20055 -0.202674,-0.401249 -0.405244,-0.401298 -0.119725,-2.8e-5 -0.164416,-0.127887 -0.180855,-0.517417 -0.01432,-0.339283 -0.09378,-0.608809 -0.230835,-0.782993 -0.11495,-0.146084 -0.209001,-0.397842 -0.209001,-0.559459 0,-0.161617 -0.09116,-0.384977 -0.202573,-0.496356 -0.201703,-0.201637 -0.201216,-0.204692 0.113275,-0.710436 0.35029,-0.563316 0.324073,-0.728016 -0.115888,-0.728016 -0.316662,0 -0.540625,-0.212998 -0.306126,-0.291138 0.224353,-0.07476 0.613906,-0.505313 0.613906,-0.67852 0,-0.233669 -0.215427,-0.192793 -0.279745,0.05308 -0.04516,0.172653 -0.123155,0.205675 -0.423889,0.179479 -0.32761,-0.02854 -0.396219,0.01038 -0.617754,0.350429 -0.219301,0.336617 -0.263904,0.36245 -0.371594,0.215223 -0.178514,-0.244052 -0.285203,-0.0042 -0.139919,0.314562 0.09167,0.20114 0.08995,0.296019 -0.0075,0.413433 -0.06958,0.08381 -0.09996,0.195328 -0.06751,0.247816 0.03245,0.05249 -0.01031,0.152937 -0.09503,0.22322 -0.203909,0.169175 -0.01491,0.408253 0.322737,0.408253 0.278637,0 0.314238,0.121666 0.09003,0.30768 -0.238316,0.197719 -0.183317,0.30768 0.15389,0.30768 0.252766,0 0.30778,0.04216 0.30778,0.235888 0,0.129738 0.04768,0.283553 0.105957,0.34181 0.208103,0.208036 -0.0077,0.447902 -0.402881,0.447902 -0.304018,0 -0.380576,0.03996 -0.393022,0.20512 -0.0085,0.112816 0.02784,0.20512 0.08076,0.20512 0.230064,0 0.06596,0.228223 -0.26286,0.365569 -0.197492,0.08249 -0.359077,0.186634 -0.359077,0.231429 0,0.09511 0.831897,0.485021 0.956615,0.448372 0.04651,-0.01367 0.05285,0.02646 0.01407,0.08918 -0.03878,0.06272 -0.166321,0.08899 -0.283434,0.05837 -0.207136,-0.05415 -1.085719,0.40867 -1.093879,0.576235 -0.0053,0.10859 0.549185,0.09565 0.853243,-0.01992 z m -1.376222,-1.490631 c 0.236448,-0.0834 0.47861,-0.141087 0.538139,-0.1282 0.121308,0.02626 0.371667,-0.573718 0.383663,-0.919435 0.0043,-0.123719 0.09386,-0.285251 0.199041,-0.35896 0.264225,-0.185164 0.176928,-0.737513 -0.150453,-0.95195 -0.388494,-0.254468 -1.066717,-0.02656 -1.066717,0.358455 0,0.139087 -0.07639,0.178476 -0.323735,0.166923 -0.271732,-0.01269 -0.33624,0.03023 -0.40159,0.267251 -0.06032,0.218786 -0.03404,0.313056 0.116726,0.418621 0.185701,0.130028 0.179351,0.149908 -0.139125,0.435546 -0.183539,0.164614 -0.328252,0.368527 -0.321586,0.453139 0.0067,0.08461 0.01915,0.211529 0.02775,0.282039 0.02133,0.174953 0.60978,0.162837 1.137887,-0.02343 z m 1.793023,-1.349996 c 0.05403,-0.140762 0.03902,-0.147106 -0.09162,-0.03872 -0.178024,0.1477 -0.196553,0.207069 -0.06462,0.207069 0.05039,0 0.120697,-0.07576 0.156238,-0.168346 z m 0.0063,-3.199858 c -0.10946,-0.114449 -0.454589,0.145084 -0.646238,0.485965 -0.330969,0.588689 -0.275043,0.599996 0.228133,0.04612 0.248371,-0.273395 0.436519,-0.512835 0.418105,-0.532088 z m 20.822151,6.968587 c 0.0382,-0.06173 0.16473,-0.163246 0.28125,-0.225585 0.15179,-0.08121 0.19218,-0.08152 0.14246,-0.0011 -0.0382,0.06173 -0.16473,0.163246 -0.28125,0.225585 -0.15179,0.08121 -0.19218,0.08152 -0.14246,0.0011 z M 32.306106,67.213687 c 0.134953,-0.11235 0.270084,-0.179566 0.300291,-0.149368 0.06542,0.0654 -0.296019,0.354006 -0.443066,0.353791 -0.05643,-8.3e-5 0.0078,-0.09207 0.142775,-0.204423 z m 4.422632,-3.119524 c 0,-0.0282 0.323169,-0.213972 0.718154,-0.412818 0.394985,-0.198847 0.718154,-0.338463 0.718154,-0.310259 0,0.0282 -0.323169,0.213972 -0.718154,0.412819 -0.394985,0.198846 -0.718154,0.338462 -0.718154,0.310258 z m 6.628605,-3.485128 c 0.175511,-0.08098 0.452513,-0.173504 0.615561,-0.205608 0.253685,-0.04995 0.24465,-0.03807 -0.06263,0.08236 -0.197492,0.0774 -0.474495,0.169927 -0.615561,0.205608 -0.192927,0.0488 -0.177407,0.02839 0.06263,-0.08236 z m -0.678186,-1.111687 c 0,-0.203106 5.918518,-1.604178 6.274875,-1.485431 0.06366,0.02121 -0.271843,0.120524 -0.745563,0.220689 -1.122252,0.237294 -5.22068,1.198611 -5.394701,1.265368 -0.07404,0.0284 -0.134611,0.02812 -0.134611,-6.15e-4 z m 2.648193,-1.373021 c 0.07406,-0.02963 0.162547,-0.02598 0.196637,0.0081 0.03409,0.03408 -0.0265,0.05832 -0.134653,0.05387 -0.119517,-0.0049 -0.143826,-0.02922 -0.06198,-0.06196 z M 26.479869,43.456598 c -0.04912,-1.057765 1.110249,-4.606721 2.342382,-7.170303 0.804715,-1.674296 1.48207,-2.654679 2.720119,-3.937019 0.571826,-0.592284 1.532778,-1.612698 2.135448,-2.267587 1.308287,-1.421645 2.298389,-2.285729 3.935767,-3.434828 1.436744,-1.008296 4.418442,-2.574965 4.584588,-2.408873 0.05953,0.05951 0.08822,0.1205 0.06377,0.135542 -0.02445,0.01504 -0.531014,0.268157 -1.125695,0.562477 -1.231262,0.609377 -3.382638,1.998164 -4.817884,3.110108 -4.305124,3.335356 -7.776533,8.496889 -9.308976,13.841238 -0.530566,1.850331 -0.518172,1.813602 -0.529519,1.569245 z m 54.64425,-1.971264 c -0.0446,-0.170593 -0.0313,-0.210635 0.0448,-0.134529 0.0596,0.0596 0.0882,0.168898 0.0635,0.242889 -0.0256,0.07681 -0.0721,0.03032 -0.10839,-0.10836 z M 26.366802,40.313285 c 0,-0.227311 0.520565,-1.738031 1.143936,-3.319793 0.24477,-0.621088 2.138189,-3.797129 3.016988,-5.060727 0.671541,-0.965589 2.791263,-3.192065 3.89266,-4.088704 1.251246,-1.01863 4.26903,-2.901889 4.415474,-2.755493 0.02413,0.02412 -0.656254,0.52539 -1.511967,1.113925 -2.736059,1.881784 -6.141265,5.500211 -8.357061,8.880348 -0.301489,0.459914 -0.548349,0.898357 -0.548578,0.974319 -2.26e-4,0.07596 -0.376677,0.922699 -0.836551,1.881634 -0.459874,0.958936 -0.863648,1.924371 -0.897276,2.145411 -0.06948,0.456725 -0.317625,0.635691 -0.317625,0.22908 z M 45.551773,23.123566 c 0.08464,-0.05726 0.242377,-0.104812 0.350528,-0.105676 0.262479,-0.0021 0.180591,0.05661 -0.196638,0.140957 -0.224774,0.05026 -0.266277,0.04075 -0.15389,-0.03528 z m -1.30858,-0.748246 c 0.02323,-0.07051 0.151827,-0.144171 0.285773,-0.16369 0.212628,-0.03099 0.22629,-0.01471 0.107644,0.1282 -0.160672,0.193534 -0.454206,0.220013 -0.393417,0.03549 z m 0.795613,-0.227152 c 0,-0.02622 0.09233,-0.09707 0.205186,-0.157448 0.16377,-0.08762 0.205187,-0.078 0.205187,0.04767 0,0.08907 -0.0891,0.157448 -0.205187,0.157448 -0.112852,0 -0.205186,-0.02145 -0.205186,-0.04767 z m 6.463385,98.767682 c 0,-0.10825 -0.196888,-0.15372 -0.255449,-0.059 -0.03544,0.0573 0.0075,0.10423 0.0955,0.10423 0.08797,0 0.159945,-0.0203 0.159945,-0.0452 z m 13.144588,-0.94508 c 0.55853,-0.26263 0.997915,-0.4951 0.976413,-0.51659 -0.0215,-0.0215 -0.518295,0.18941 -1.103982,0.46869 -0.585686,0.27928 -1.025072,0.51174 -0.976413,0.51659 0.04866,0.005 0.545451,-0.20606 1.103982,-0.46869 z m -28.397665,-1.21729 c 0.0099,-0.055 -1.120971,-0.86594 -2.512988,-1.8021 -1.392019,-0.93615 -2.88686,-1.98611 -3.32187,-2.33324 -1.632821,-1.30295 -0.760326,-0.35465 1.133514,1.23199 1.154818,0.9675 2.552496,1.97517 3.488177,2.51483 0.972039,0.56063 1.170835,0.62429 1.213167,0.38852 z m 41.735265,-3.92036 c 0.12762,-0.16266 0.12399,-0.16629 -0.0387,-0.0387 -0.0987,0.0774 -0.17954,0.15818 -0.17954,0.17948 0,0.0844 0.0842,0.0301 0.21827,-0.14076 z m -45.825875,-1.57284 c -0.489584,-0.50588 -1.790558,-1.67242 -1.790558,-1.60554 0,0.23748 1.845683,2.02458 2.090951,2.02458 0.05783,0 -0.07734,-0.18857 -0.300393,-0.41904 z m -3.432053,-3.22183 c -0.07251,-0.0873 -0.154916,-0.13573 -0.183129,-0.10752 -0.02821,0.0282 0.008,0.12274 0.08053,0.21008 0.07251,0.0873 0.154917,0.13572 0.18313,0.10751 0.02821,-0.0282 -0.008,-0.12274 -0.08054,-0.21007 z m 53.143398,-1.92248 c 0,-0.0572 -0.068,-0.0461 -0.15389,0.0251 -0.0846,0.0702 -0.15389,0.17382 -0.15389,0.23023 0,0.0572 0.068,0.0461 0.15389,-0.0251 0.0846,-0.0702 0.15389,-0.17383 0.15389,-0.23024 z m -0.46005,-1.49256 c 0.49793,-0.85033 0.63854,-1.28991 0.17067,-0.53352 -0.57682,0.93251 -0.86091,1.46139 -0.74728,1.39118 0.0641,-0.0396 0.32359,-0.42556 0.57661,-0.85766 z m 1.07249,-4.0658 c -0.003,-0.16864 -0.0207,-0.18019 -0.0902,-0.0573 -0.0479,0.0846 -0.11812,0.26922 -0.15608,0.41024 -0.0663,0.24636 -0.0628,0.2486 0.0902,0.0573 0.0876,-0.1095 0.1578,-0.29411 0.15609,-0.41024 z m 1.21565,-1.80084 c 0.28403,-0.874323 0.56518,-1.958894 0.62477,-2.410158 0.0596,-0.451264 0.20529,-1.506656 0.32378,-2.345315 0.15455,-1.093819 0.18406,-1.55621 0.10441,-1.635831 -0.0797,-0.07962 -0.11103,-0.07956 -0.11103,2.05e-4 0,0.06117 -0.11696,0.973564 -0.25991,2.027544 -0.19013,1.401889 -0.38619,2.348049 -0.73035,3.524533 -0.52118,1.781612 -0.64516,2.254532 -0.64879,2.474832 -0.006,0.36582 0.21646,-0.15624 0.69712,-1.63583 z m -1.00735,0.56408 c 0,-0.0846 -0.0462,-0.15384 -0.10259,-0.15384 -0.0564,0 -0.10259,0.0692 -0.10259,0.15384 0,0.0846 0.0462,0.15384 0.10259,0.15384 0.0564,0 0.10259,-0.0692 0.10259,-0.15384 z m 1.11075,-5.922837 c 0.27802,-1.656074 0.45661,-6.957928 0.2389,-7.092433 -0.0477,-0.02945 -0.11732,1.017787 -0.1548,2.327186 -0.0375,1.309401 -0.11303,2.726868 -0.1679,3.149928 -0.18507,1.426825 -0.23992,2.358879 -0.13882,2.358879 0.0538,0 0.15397,-0.334602 0.22262,-0.74356 z M 22.378605,93.278282 c -0.08708,-0.778056 -0.157693,-1.031026 -0.257619,-0.922882 -0.04179,0.04523 0.09979,1.207874 0.197137,1.618876 0.118253,0.499278 0.151471,0.117022 0.06048,-0.695994 z M 80.533299,83.204468 c -0.243,-1.186385 -0.51354,-2.08137 -1.0962,-3.626329 -0.8505,-2.255162 -1.56594,-3.861179 -1.63696,-3.674635 -0.0251,0.06605 0.0664,0.342957 0.20342,0.615359 0.64435,1.28097 1.79585,4.602361 2.32903,6.717886 0.37736,1.497245 0.42119,1.64496 0.47277,1.593391 0.0278,-0.0278 -0.0946,-0.759351 -0.27206,-1.625672 z m -33.208832,0.604269 c 0.09373,-0.07051 0.287222,-0.439726 0.429983,-0.820479 0.14276,-0.380754 0.374078,-0.995359 0.514038,-1.365789 l 0.254472,-0.67351 -0.219339,0.03251 c -0.173174,0.02567 -0.277935,0.202836 -0.497733,0.841751 l -0.278395,0.809241 -0.278131,-0.834881 c -0.225996,-0.678383 -0.317072,-0.834882 -0.48587,-0.834882 -0.122809,0 -0.188563,0.05241 -0.160836,0.1282 0.651784,1.781583 0.720177,2.038645 0.607918,2.284944 -0.06739,0.147859 -0.201885,0.253415 -0.322887,0.253415 -0.115948,0 -0.207387,0.06783 -0.207387,0.15384 0,0.18908 0.405453,0.205219 0.644167,0.02564 z m -1.432521,-0.810193 c 0.228391,-0.120176 0.373589,-0.282391 0.37641,-0.420526 0.0027,-0.134352 -0.314897,-0.08289 -0.474756,0.07692 -0.237178,0.2371 -0.612205,0.185744 -0.849942,-0.116391 -0.116948,-0.148627 -0.212633,-0.310159 -0.212633,-0.35896 0,-0.0488 0.369337,-0.08873 0.820748,-0.08873 0.495797,0 0.820747,-0.04191 0.820747,-0.105854 0,-0.24774 -0.306526,-0.809298 -0.497537,-0.911491 -0.300684,-0.160868 -0.805187,-0.135842 -1.095545,0.05435 -0.541938,0.354975 -0.55262,1.459914 -0.01773,1.834441 0.261635,0.183196 0.817112,0.201009 1.130242,0.03624 z M 44.83297,81.579269 c 0.155117,-0.289742 0.564199,-0.366549 0.873441,-0.163992 0.404728,0.265101 0.303176,0.367901 -0.363434,0.367901 -0.586154,0 -0.61335,-0.01087 -0.510007,-0.203909 z m 5.3679,1.419275 c 0.228391,-0.120176 0.373589,-0.282391 0.37641,-0.420526 0.0027,-0.134352 -0.314897,-0.08289 -0.474756,0.07692 -0.237178,0.2371 -0.612205,0.185744 -0.849942,-0.116391 -0.116948,-0.148627 -0.212633,-0.310159 -0.212633,-0.35896 0,-0.0488 0.369337,-0.08873 0.820748,-0.08873 0.495797,0 0.820747,-0.04191 0.820747,-0.105854 0,-0.24774 -0.306527,-0.809298 -0.497537,-0.911491 -0.300684,-0.160868 -0.805187,-0.135842 -1.095545,0.05435 -0.541938,0.354975 -0.55262,1.459914 -0.01773,1.834441 0.261635,0.183196 0.817112,0.201009 1.130242,0.03624 z m -1.058976,-1.419275 c 0.155116,-0.289742 0.564198,-0.366549 0.873441,-0.163992 0.404728,0.265101 0.303176,0.367901 -0.363434,0.367901 -0.586154,0 -0.61335,-0.01087 -0.510007,-0.203909 z m 30.377925,0.275063 c -0.13398,-0.133937 -0.15262,0.0145 -0.0383,0.305058 0.0713,0.181198 0.0753,0.18111 0.11221,-0.0025 0.0211,-0.104705 -0.0122,-0.240854 -0.0739,-0.302552 z m -11.243602,0.07837 c 0.169279,-0.07304 0.238529,-0.133137 0.15389,-0.133554 -0.08464,-4.1e-4 -0.338559,0.08802 -0.564264,0.196524 -0.437997,0.210564 -0.10527,0.159509 0.410374,-0.06297 z m 16.570692,-3.041397 c -0.26307,-0.869416 -0.89957,-2.29593 -0.98592,-2.209607 -0.0714,0.07138 0.6186,2.122253 0.9002,2.675617 0.30128,0.59204 0.34082,0.377084 0.0857,-0.46601 z M 71.96958,77.528794 72.174767,77.361781 71.96958,77.462484 c -0.112853,0.05539 -0.297521,0.175858 -0.410374,0.267715 l -0.205187,0.167013 0.205187,-0.100703 c 0.112853,-0.05539 0.297521,-0.175858 0.410374,-0.267715 z m 3.642069,-2.976096 c 0.19141,-0.197428 0.32494,-0.35896 0.29673,-0.35896 -0.0282,0 -0.20791,0.161532 -0.39933,0.35896 -0.19141,0.197428 -0.32494,0.35896 -0.29673,0.35896 0.0282,0 0.20791,-0.161532 0.39933,-0.35896 z M 31.188693,67.202499 c 0,-0.136975 -0.03909,-0.108385 -0.466497,0.341152 l -0.405547,0.426547 0.436022,-0.341152 c 0.239812,-0.187634 0.436022,-0.379581 0.436022,-0.426547 z m -3.175609,-2.492476 c -0.73188,-1.723097 -1.580299,-4.246746 -2.061653,-6.132449 -0.183786,-0.719978 -0.352197,-1.291016 -0.374247,-1.268972 -0.082,0.08197 0.518148,2.815746 0.813618,3.706184 0.689571,2.078112 2.073379,5.373089 2.202396,5.244114 0.03002,-0.03001 -0.231028,-0.727008 -0.580114,-1.548877 z m -5.611802,0.125121 c -0.237458,-0.806648 -0.763844,-2.15176 -0.93314,-2.384519 -0.136965,-0.188309 -0.143403,-0.171498 -0.07854,0.20512 0.124888,0.725206 0.951012,2.717839 1.126787,2.717839 0.02387,0 -0.02792,-0.242298 -0.115102,-0.53844 z m 12.529251,-0.554167 c 0.1113,-0.07596 0.16802,-0.138112 0.126042,-0.138112 -0.09855,0 -0.892673,0.524426 -0.892673,0.589504 0,0.04585 0.277193,-0.117356 0.766631,-0.451392 z m 22.050473,-2.408568 c 0.36268,-0.165194 0.471604,-0.580001 0.471604,-1.795967 0,-0.993202 -0.01322,-1.061576 -0.205187,-1.061576 -0.112852,0 -0.205187,0.04214 -0.205187,0.09365 0,0.0528 -0.126369,0.04597 -0.289686,-0.01566 -0.616811,-0.232744 -1.11838,0.147012 -1.212545,0.918059 -0.09324,0.763449 0.544868,1.33165 1.212545,1.079713 0.24197,-0.0913 0.289686,-0.08254 0.289686,0.05319 0,0.467118 -0.707819,0.71559 -0.947149,0.332488 -0.166381,-0.266331 -0.489158,-0.270169 -0.489158,-0.0058 0,0.43284 0.796236,0.66557 1.375077,0.401919 z m -0.86211,-1.216583 c -0.397493,-0.397364 -0.145434,-1.33328 0.359077,-1.33328 0.277534,0 0.564263,0.390867 0.564263,0.7692 0,0.378333 -0.286729,0.7692 -0.564263,0.7692 -0.08464,0 -0.246225,-0.0923 -0.359077,-0.20512 z m 3.354214,0.265279 c 0.252485,-0.217108 0.287852,-0.319007 0.287852,-0.829359 0,-0.510352 -0.03537,-0.612251 -0.287852,-0.829359 -0.197563,-0.169882 -0.412985,-0.247521 -0.686785,-0.247521 -0.273801,0 -0.489222,0.07764 -0.686785,0.247521 -0.252486,0.217108 -0.287853,0.319007 -0.287853,0.829359 0,0.510352 0.03537,0.612251 0.287853,0.829359 0.197563,0.169882 0.412984,0.247521 0.686785,0.247521 0.2738,0 0.489222,-0.07764 0.686785,-0.247521 z m -1.097159,-0.265279 c -0.420765,-0.420628 -0.139858,-1.33328 0.410374,-1.33328 0.323837,0 0.61556,0.364536 0.61556,0.7692 0,0.404664 -0.291723,0.7692 -0.61556,0.7692 -0.112853,0 -0.297521,-0.0923 -0.410374,-0.20512 z m 2.981954,0.406632 c 0.136791,-0.07319 0.198442,-0.07319 0.198442,0 0,0.05839 0.09233,0.106168 0.205187,0.106168 0.195753,0 0.205187,-0.06837 0.205187,-1.48712 0,-1.418746 -0.0094,-1.487119 -0.205187,-1.487119 -0.17802,0 -0.205187,0.06837 -0.205187,0.516408 0,0.478776 -0.01446,0.508671 -0.198442,0.410239 -0.783855,-0.419369 -1.548796,0.439131 -1.235862,1.387021 0.189852,0.575072 0.737791,0.820874 1.235862,0.554403 z m -0.724899,-0.406632 c -0.397493,-0.397364 -0.145433,-1.33328 0.359077,-1.33328 0.277535,0 0.564264,0.390867 0.564264,0.7692 0,0.378333 -0.286729,0.7692 -0.564264,0.7692 -0.08464,0 -0.246224,-0.0923 -0.359077,-0.20512 z m 4.005537,0.407889 c 0.30059,-0.160818 0.421329,-0.456741 0.307968,-0.754805 -0.07261,-0.190912 -0.232725,-0.29777 -0.61721,-0.411913 -0.690817,-0.205083 -0.758118,-0.252426 -0.610911,-0.429742 0.159467,-0.192083 0.49756,-0.18358 0.72051,0.01812 0.09899,0.08956 0.257074,0.147246 0.351295,0.1282 0.151493,-0.03062 0.145581,-0.06726 -0.05111,-0.31667 -0.42016,-0.532782 -1.43865,-0.294557 -1.43865,0.336502 0,0.32514 0.271004,0.524345 0.896516,0.658997 0.396144,0.08528 0.499443,0.216148 0.330876,0.419193 -0.176131,0.212157 -0.576331,0.184837 -0.817018,-0.05577 -0.219077,-0.219006 -0.512967,-0.275094 -0.512967,-0.0979 0,0.05897 0.11332,0.220504 0.251821,0.35896 0.271398,0.271311 0.827774,0.340023 1.18888,0.146828 z m -37.65618,-0.849807 c 0,-0.07383 -0.06862,-0.223825 -0.152481,-0.33332 -0.139502,-0.182137 -0.143014,-0.170711 -0.04126,0.134238 0.11613,0.348036 0.193741,0.427786 0.193741,0.199082 z M 62.76695,59.096914 c 0.06771,-0.06769 0.123112,-0.298449 0.123112,-0.512799 0,-0.321355 -0.036,-0.389728 -0.205187,-0.389728 -0.229833,0 -0.293081,0.361327 -0.07695,0.439573 0.102593,0.03714 0.102593,0.08985 0,0.263555 -0.07053,0.11942 -0.128242,0.240831 -0.128242,0.2698 0,0.09485 0.161565,0.05526 0.287262,-0.0704 z M 22.4735,51.507512 c 0.04619,-1.257917 0.163541,-2.984769 0.26079,-3.837448 0.09867,-0.865112 0.140336,-1.635714 0.09428,-1.743519 -0.111363,-0.26066 -0.324651,0.949066 -0.461311,2.616459 -0.112909,1.377605 -0.144047,5.417893 -0.04096,5.314841 0.03478,-0.03477 0.101019,-1.092416 0.147204,-2.350333 z m 61.722429,-2.476078 c -0.0949,-1.122499 -0.29478,-1.483841 -0.22317,-0.403491 0.0307,0.463866 0.0829,0.913847 0.11599,0.99996 0.12957,0.337527 0.16805,0.123374 0.10718,-0.596469 z M 21.898353,46.246151 c 0.262532,-2.057974 0.435654,-2.899075 0.932079,-4.528455 0.558521,-1.833193 0.622961,-2.65648 0.08707,-1.112343 -0.61271,1.765474 -0.840614,2.653595 -0.963466,3.754542 -0.06541,0.586177 -0.184035,1.481144 -0.263611,1.988816 -0.168645,1.075902 -0.184496,1.467018 -0.05383,1.328152 0.05042,-0.05359 0.168217,-0.697408 0.261763,-1.430712 z m 1.924132,-5.61003 c -0.09575,-0.09572 -0.123112,-0.06837 -0.123112,0.123072 0,0.191446 0.02736,0.218794 0.123112,0.123072 0.09575,-0.09572 0.09575,-0.150422 0,-0.246144 z m 0.28412,-1.466607 c 0,-0.169854 -0.0171,-0.17867 -0.09945,-0.05128 -0.0547,0.08461 -0.09945,0.246144 -0.09945,0.35896 0,0.169853 0.0171,0.178669 0.09945,0.05128 0.0547,-0.08461 0.09945,-0.246144 0.09945,-0.35896 z m 1.271452,-4.204959 0.283076,-0.5128 -0.261786,0.30768 c -0.271082,0.318606 -0.880706,1.397623 -0.877277,1.552756 0.0022,0.09865 0.425555,-0.567897 0.855987,-1.347636 z m -0.639563,-1.205079 c 0.111532,-0.209245 0.107086,-0.217637 -0.04769,-0.09 -0.09388,0.07742 -0.170687,0.18126 -0.170687,0.23076 0,0.156659 0.09117,0.0979 0.218374,-0.140757 z m 53.025555,-1.771638 c -0.0714,-0.08597 -0.1509,-0.135198 -0.17672,-0.109384 -0.0711,0.07113 0.0734,0.265702 0.1974,0.265702 0.068,0 0.0602,-0.05885 -0.0207,-0.156318 z m -2.03518,-1.993528 c -0.33577,-0.463366 -1.75406,-1.683713 -1.84785,-1.589954 -0.0639,0.06386 1.92584,1.983108 2.0647,1.991559 0.0427,0.0026 -0.0549,-0.178125 -0.21685,-0.401605 z m 0.58975,-2.471273 c -2.45467,-2.325539 -6.247017,-4.878813 -6.247017,-4.205931 0,0.05262 1.142634,0.856575 2.539187,1.786575 1.39655,0.929999 2.90852,1.990295 3.35993,2.356212 0.45142,0.365919 0.8388,0.647717 0.86087,0.626218 0.0221,-0.0215 -0.20878,-0.274882 -0.51297,-0.563074 z m -7.426842,-4.936692 c -0.852403,-0.537592 -2.472383,-1.260297 -4.204702,-1.875801 -2.182988,-0.775628 -4.053738,-1.213482 -6.092711,-1.426012 -0.716302,-0.07466 -0.349056,0.0973 0.602334,0.282046 0.859032,0.166811 3.382533,0.872927 5.591342,1.564547 0.62069,0.19435 1.8672,0.671448 2.770023,1.060217 0.902822,0.38877 1.687661,0.709479 1.744088,0.712688 0.05643,0.0032 -0.128242,-0.13975 -0.410374,-0.317685 z M 41.972076,22.092133 c 0.586387,-0.282671 0.95074,-0.485284 0.809674,-0.45025 -0.551966,0.137078 -2.192614,0.964197 -1.912554,0.964197 0.0202,0 0.516493,-0.231276 1.10288,-0.513947 z m 13.223479,-0.918674 c 0,-0.05464 -0.06925,-0.07278 -0.15389,-0.04031 -0.08464,0.03247 -0.15389,0.07717 -0.15389,0.09934 0,0.02217 0.06925,0.04031 0.15389,0.04031 0.08464,0 0.15389,-0.0447 0.15389,-0.09934 z m 7.088309,102.615751 c 0.02396,-0.0239 0.876593,-0.36448 1.894745,-0.75675 1.01815,-0.39225 2.056542,-0.81805 2.307538,-0.94621 0.250995,-0.12817 0.982344,-0.4555 1.62522,-0.72742 1.308696,-0.55352 2.149213,-1.02632 3.653026,-2.05484 1.618856,-1.1072 2.438936,-1.63103 2.483586,-1.5864 0.0588,0.0588 -1.707173,1.36721 -2.743766,2.03285 -1.368362,0.8787 -4.126578,2.42933 -4.896183,2.75258 -0.383567,0.1611 -1.471187,0.5262 -2.416935,0.81133 -1.593323,0.48036 -2.018663,0.58626 -1.907231,0.47486 z m 5.992353,-1.53548 c 1.063674,-0.51985 2.184355,-1.16315 2.872616,-1.64896 1.280944,-0.90417 1.418663,-0.97885 1.317066,-0.71418 -0.05607,0.14608 -0.03265,0.16863 0.11594,0.11163 0.41368,-0.15869 -0.116832,0.28872 -1.073929,0.90573 -1.105003,0.71234 -4.49716,2.23248 -4.914898,2.20252 -0.03349,-0.002 0.723956,-0.38793 1.683205,-0.85674 z M 86.542669,98.991286 c 0.0398,-0.181304 0.13654,-0.49283 0.21489,-0.692279 0.1301,-0.331173 0.13738,-0.335941 0.0839,-0.05496 -0.1048,0.550936 -0.25901,1.07688 -0.31575,1.07688 -0.0305,0 -0.0229,-0.148341 0.0169,-0.329646 z m -67.034,-55.104014 c -0.0037,-0.247668 0.369824,-1.398538 0.382829,-1.17944 0.005,0.08461 -0.07837,0.430752 -0.185304,0.7692 -0.106939,0.338448 -0.195826,0.523056 -0.197525,0.41024 z M 32.543775,24.010309 c 1.317399,-1.242223 6.223067,-4.145951 8.076249,-4.780436 1.127853,-0.38615 3.423825,-1.03709 3.475562,-0.985371 0.02709,0.02708 -0.01507,0.07201 -0.09368,0.09985 -1.211319,0.428979 -3.551237,1.366545 -4.349256,1.742673 -0.564264,0.265954 -1.32602,0.597364 -1.692792,0.736469 -0.94206,0.357291 -2.265004,1.16696 -5.437451,3.327831 l -0.461671,0.314461 z m 1.312347,-1.763189 c 0.105228,-0.12675 0.09619,-0.15384 -0.0513,-0.15384 -0.1447,0 -0.155363,-0.02849 -0.05562,-0.148628 0.250048,-0.301191 2.036384,-1.373637 3.076695,-1.847127 1.206926,-0.549324 2.888751,-1.207095 2.944323,-1.151541 0.02016,0.02016 -0.703828,0.388877 -1.608867,0.819381 -1.131622,0.538284 -2.056409,1.072061 -2.961183,1.709165 -1.279284,0.900815 -1.606792,1.089075 -1.344048,0.77259 z m 12.311211,-4.40647 c 0,-0.140596 0.57633,-0.282103 2.520027,-0.618745 2.806167,-0.486019 3.857514,-0.548739 5.070826,-0.30251 0.563029,0.114261 0.874373,0.219561 0.789528,0.267027 -0.07705,0.0431 -1.120674,0.12694 -2.319168,0.186302 -1.198496,0.05936 -2.97177,0.199586 -3.94061,0.311611 -1.851328,0.214064 -2.120603,0.233913 -2.120603,0.156315 z"
       id="path826"
       inkscape:connector-curvature="0" />
    <flowRoot
       xml:space="preserve"
       id="flowRoot8375"
       style="font-style:normal;font-weight:normal;font-size:40px;line-height:1.25;font-family:sans-serif;letter-spacing:0px;word-spacing:0px;fill:#000000;fill-opacity:1;stroke:none"
       transform="scale(0.26458333)"><flowRegion
         id="flowRegion8377"><rect
           id="rect8379"
           width="62.202198"
           height="47.392151"
           x="-404.3143"
           y="375.35278" /></flowRegion><flowPara
         id="flowPara8381" /></flowRoot>    <flowRoot
       xml:space="preserve"
       id="flowRoot8383"
       style="fill:black;fill-opacity:1;stroke:none;font-family:sans-serif;font-style:normal;font-weight:normal;font-size:40px;line-height:1.25;letter-spacing:0px;word-spacing:0px"><flowRegion
         id="flowRegion8385"><rect
           id="rect8387"
           width="50.35416"
           height="94.0438"
           x="-407.27631"
           y="359.06174" /></flowRegion><flowPara
         id="flowPara8389" /></flowRoot>  </g>
</svg>
